<?xml version="1.0" encoding="utf-8"?>
<!-- Generator: Adobe Illustrator 23.0.2, SVG Export Plug-In . SVG Version: 6.00 Build 0)  -->
<svg version="1.0" id="Calque_1" xmlns="http://www.w3.org/2000/svg" xmlns:xlink="http://www.w3.org/1999/xlink" x="0px" y="0px"
	 viewBox="0 0 1148 345" style="enable-background:new 0 0 1148 345;" xml:space="preserve">
<style type="text/css">
	.st0{fill:none;stroke:#E52421;stroke-width:5;stroke-miterlimit:10;}
	.st1{opacity:0.18;fill:#E52A22;enable-background:new    ;}
	.st2{fill:none;stroke:#555562;stroke-width:2;stroke-miterlimit:10;}
	.st3{fill:#E52621;}
	.st4{fill:#40424D;}
	.st5{fill:#DFE6F5;}
	.st6{opacity:0.1;fill:#020203;enable-background:new    ;}
	.st7{fill:#FFD77C;stroke:#F7A954;stroke-miterlimit:10;}
	.st8{fill:#F6C6CC;}
	.st9{fill:url(#SVGID_1_);}
	.st10{fill:#B9616E;}
	.st11{opacity:5.000000e-02;fill:#020203;enable-background:new    ;}
	.st12{fill:#F7BEC5;}
	.st13{fill:#768AC5;}
	.st14{fill:#8E5625;}
	.st15{opacity:5.000000e-02;fill:#8E5625;enable-background:new    ;}
	.st16{fill:#5C539F;}
	.st17{fill:#926269;}
	.st18{opacity:0.1;fill:#FFFFFF;enable-background:new    ;}
	.st19{fill:url(#SVGID_2_);}
	.st20{fill:#5A4D77;}
	.st21{fill:#8C9CCF;}
	.st22{fill:#EA6475;}
	.st23{opacity:0.1;}
	.st24{fill:#FFFFFF;}
	.st25{fill:#FFD77C;stroke:#F7A954;stroke-width:0.25;stroke-miterlimit:10;}
	.st26{fill:#FFFFFE;}
	.st27{font-family:'Bauhaus93';}
	.st28{font-size:7.5114px;}
	.st29{fill:#E4A98B;}
	.st30{fill:#E52A22;}
	.st31{fill:url(#SVGID_3_);}
	.st32{fill:#3E3E53;}
	.st33{fill:url(#SVGID_4_);}
	.st34{fill:url(#SVGID_5_);}
	.st35{fill:url(#SVGID_6_);}
	.st36{fill:url(#SVGID_7_);}
	.st37{fill:url(#SVGID_8_);}
	.st38{fill:url(#SVGID_9_);}
	.st39{fill:url(#SVGID_10_);}
	.st40{fill:#5D2F33;}
	.st41{fill:url(#SVGID_11_);}
	.st42{fill:url(#SVGID_12_);}
	.st43{font-size:39px;}
	.st44{font-size:34px;}
</style>
<rect x="1" class="st0" width="1148" height="345"/>
<title>eating_together</title>
<ellipse class="st1" cx="28.2" cy="187.9" rx="16.1" ry="5.7"/>
<ellipse class="st1" cx="288.2" cy="211.6" rx="16.1" ry="5.7"/>
<path class="st1" d="M195.9,10.5c-24.5,9.4-51,9.9-75.7,1C85.3-1.2,39.6-4.4,22.7,53.5c-28.9,98.8,30.2,134.1,30.2,134.1
	s41.2,9.2,64.1,25.9c32.4,23.7,72.1,31.7,109.6,20.5c23.9-7.1,44.4-18.8,50.3-37.9c16.4-53.4,6-85.5,35.7-99.6s13.2-66.2-7.9-67.4
	c-21.1-1.2-70.8,10.9-86.2-13.2C212.9,7.4,204.5,7.2,195.9,10.5z"/>
<path class="st2" d="M287.5,212.4c0,0,4.3-14.6-0.8-25.4c-2.2-4.5-2.8-9.6-1.9-14.5c0.5-2.3,1.1-4.6,2-6.8"/>
<path class="st3" d="M283.7,159c0,1.8,3.3,7,3.3,7s3.3-5.2,3.3-7c0-1.8-1.5-3.3-3.3-3.3S283.7,157.2,283.7,159L283.7,159z"/>
<path class="st3" d="M278.4,168.9c1,1.5,6.5,4.1,6.5,4.1s-0.1-6.1-1.1-7.6s-3-1.9-4.5-1C277.8,165.4,277.4,167.4,278.4,168.9
	L278.4,168.9z"/>
<path class="st3" d="M278.6,185.8c1.6,0.8,7.7,0.3,7.7,0.3s-3.2-5.2-4.8-6c-1.6-0.8-3.5-0.2-4.4,1.4
	C276.4,183.1,277,185,278.6,185.8L278.6,185.8z"/>
<path class="st3" d="M281.7,198.6c1.4,1.1,7.5,1.5,7.5,1.5s-2.3-5.7-3.7-6.8c-1.4-1.1-3.5-0.8-4.5,0.7
	C280,195.5,280.2,197.6,281.7,198.6L281.7,198.6z"/>
<path class="st3" d="M291.7,173.4c-1.3,1.3-7.3,2.5-7.3,2.5s1.5-5.9,2.8-7.2s3.3-1.2,4.6,0.1S293,172.1,291.7,173.4z"/>
<path class="st3" d="M295.1,188.3c-1.6,0.8-7.7,0.3-7.7,0.3s3.2-5.2,4.8-6c1.6-0.8,3.5-0.2,4.4,1.4S296.7,187.6,295.1,188.3
	L295.1,188.3z"/>
<path class="st3" d="M296.4,203.4c-1.4,1.1-7.5,1.5-7.5,1.5s2.3-5.7,3.7-6.8c1.4-1.1,3.5-0.8,4.5,0.7
	C298.2,200.3,297.8,202.3,296.4,203.4z"/>
<path class="st2" d="M28.2,188c0,0,9.2-31.2-1.7-54.1c-4.6-9.6-6.1-20.4-4-30.9c1-5,2.5-9.8,4.4-14.5"/>
<path class="st3" d="M20.1,74c0,3.8,6.9,14.9,6.9,14.9s6.9-11.1,6.9-14.9c0-3.8-3.1-6.9-6.9-6.9S20.1,70.1,20.1,74L20.1,74L20.1,74z
	"/>
<path class="st3" d="M8.7,95.1c2.1,3.2,13.9,8.8,13.9,8.8s-0.2-13.1-2.3-16.3c-2.1-3.1-6.4-4-9.6-1.8C7.6,87.9,6.7,92,8.7,95.1
	L8.7,95.1z"/>
<path class="st3" d="M9.1,131.3c3.4,1.7,16.4,0.5,16.4,0.5s-6.8-11.2-10.2-12.9c-3.4-1.7-7.6-0.4-9.3,3.1
	C4.4,125.4,5.7,129.6,9.1,131.3L9.1,131.3L9.1,131.3z"/>
<path class="st3" d="M15.7,158.6c3.1,2.3,16.1,3.3,16.1,3.3s-4.8-12.2-7.9-14.4c-3.1-2.3-7.4-1.6-9.7,1.4
	C12,151.9,12.6,156.3,15.7,158.6L15.7,158.6z"/>
<path class="st3" d="M37.1,104.6c-2.8,2.6-15.5,5.4-15.5,5.4s3.1-12.7,5.9-15.3c2.8-2.7,7.1-2.6,9.8,0.1
	C39.9,97.6,39.8,101.9,37.1,104.6L37.1,104.6L37.1,104.6z"/>
<path class="st3" d="M44.3,136.6c-3.4,1.7-16.4,0.5-16.4,0.5s6.8-11.2,10.2-12.9c3.4-1.7,7.6-0.4,9.3,3.1
	C49.1,130.8,47.7,134.9,44.3,136.6L44.3,136.6L44.3,136.6z"/>
<path class="st3" d="M47.1,168.7C44,170.9,31,172,31,172s4.8-12.2,7.9-14.4c3.1-2.3,7.4-1.6,9.7,1.4C50.8,162,50.1,166.4,47.1,168.7
	L47.1,168.7z"/>
<path class="st3" d="M141,111.1l-19.9-2.6c-0.8-0.1-1.4-0.4-1.4-0.7l0,0c0-0.3,0.7-0.4,1.5-0.3l19.9,2.9c0.5,0.1,1,0.3,0.9,0.5l0,0
	C142,111.1,141.5,111.2,141,111.1z"/>
<path class="st3" d="M141.1,111.4l-20-2.1c-0.8-0.1-1.5,0.1-1.5,0.3l0,0c0,0.3,0.6,0.5,1.4,0.6l20,1.8c0.5,0,1-0.1,1-0.3l0,0
	C142,111.7,141.6,111.5,141.1,111.4z"/>
<path class="st3" d="M171.1,126.5l19.9-2.6c0.8-0.1,1.4-0.4,1.4-0.7l0,0c0-0.3-0.7-0.4-1.5-0.3l-19.9,2.9c-0.5,0.1-1,0.3-0.9,0.5
	l0,0C170,126.5,170.5,126.6,171.1,126.5z"/>
<path class="st3" d="M170.9,126.8l20-2.1c0.8-0.1,1.5,0.1,1.5,0.3l0,0c0,0.3-0.6,0.5-1.4,0.6l-20,1.8c-0.5,0-1-0.1-1-0.3l0,0
	C170,127.1,170.4,126.9,170.9,126.8z"/>
<rect x="100.3" y="147.9" class="st4" width="4.9" height="69.7"/>
<rect x="206.5" y="147.9" class="st4" width="4.9" height="69.7"/>
<path class="st5" d="M98.4,142.2h112.3c4.4,0,7.9,3.5,7.9,7.9v1l0,0H90.6l0,0v-1C90.6,145.7,94.1,142.2,98.4,142.2z"/>
<path class="st6" d="M98.1,142.2h112.3c4.4,0,7.9,3.5,7.9,7.9v1l0,0H90.2l0,0v-1C90.2,145.7,93.7,142.2,98.1,142.2z"/>
<path class="st5" d="M98.4,140.6h112.3c4.4,0,7.9,3.5,7.9,7.9v1l0,0H90.6l0,0v-1C90.6,144.1,94.1,140.6,98.4,140.6z"/>
<circle class="st7" cx="154.6" cy="125.2" r="9.7"/>
<circle class="st7" cx="154.6" cy="125.2" r="7.7"/>
<circle class="st7" cx="154.6" cy="125.2" r="5.9"/>
<circle class="st7" cx="154.6" cy="125.2" r="3.3"/>
<circle class="st7" cx="148.9" cy="130.5" r="9.7"/>
<circle class="st7" cx="148.9" cy="130.5" r="7.7"/>
<circle class="st7" cx="148.9" cy="130.5" r="5.9"/>
<circle class="st7" cx="148.9" cy="130.5" r="3.3"/>
<circle class="st7" cx="160.2" cy="130.5" r="9.7"/>
<circle class="st7" cx="160.2" cy="130.5" r="7.7"/>
<circle class="st7" cx="160.2" cy="130.5" r="5.9"/>
<circle class="st7" cx="160.2" cy="130.5" r="3.3"/>
<path class="st3" d="M134.3,127.6h40.5l0,0v1.9c0,7.9-6.4,14.3-14.3,14.3h-11.9c-7.9,0-14.3-6.4-14.3-14.3V127.6L134.3,127.6z"/>
<path class="st6" d="M171.2,127.6c-0.2,8.8-7.4,15.8-16.2,15.8h-8c1.2,0.3,2.4,0.4,3.6,0.4h8.1c8.9,0,16.2-7.3,16.2-16.2l0,0
	L171.2,127.6L171.2,127.6z"/>
<rect x="103.5" y="201" class="st4" width="105.4" height="4.9"/>
<rect x="59.8" y="184" class="st4" width="4.3" height="38.7"/>
<rect x="93.4" y="184" class="st4" width="4.3" height="38.7"/>
<path class="st8" d="M101,177.6c0,2.6-8.8,4.7-19.6,4.7s-19.1-2.1-19.1-4.7s8.3-4.7,19.1-4.7S101,175.1,101,177.6z"/>
<path class="st4" d="M56.4,177.6H101l0,0v3.9c0,2.1-1.7,3.8-3.8,3.8l0,0H62.8c-3.5,0-6.4-2.9-6.4-6.4V177.6L56.4,177.6z"/>
<path class="st4" d="M48.8,132.9l0.9-0.2c1.4-0.3,2.7,0.5,3,1.9L63.9,184l0,0l-1.4,0.3c-2.4,0.5-4.9-1-5.4-3.4l-10.2-45
	C46.6,134.5,47.4,133.2,48.8,132.9L48.8,132.9z"/>
<rect x="245.8" y="184.7" class="st4" width="4.3" height="38.7"/>
<rect x="212.2" y="184.7" class="st4" width="4.3" height="38.7"/>
<path class="st8" d="M208.8,178.3c0,2.6,8.8,4.7,19.6,4.7s19.1-2.1,19.1-4.7s-8.3-4.7-19.1-4.7S208.8,175.7,208.8,178.3z"/>
<path class="st4" d="M247,186h-34.4c-2.1,0-3.8-1.7-3.8-3.8v-3.9l0,0h44.6l0,0v1.2C253.5,183.1,250.6,186,247,186z"/>
<path class="st4" d="M247.4,185l-1.4-0.3l0,0l11.2-49.4c0.3-1.4,1.6-2.2,3-1.9l0.9,0.2c1.4,0.3,2.2,1.6,1.9,3l-10.2,45
	C252.3,184,249.8,185.5,247.4,185z"/>
<linearGradient id="SVGID_1_" gradientUnits="userSpaceOnUse" x1="363.7246" y1="158.5926" x2="363.7246" y2="311.3011" gradientTransform="matrix(1 0 0 -1 -148.11 381.57)">
	<stop  offset="0" style="stop-color:#808181;stop-opacity:0.25"/>
	<stop  offset="0.54" style="stop-color:#808181;stop-opacity:0.12"/>
	<stop  offset="1" style="stop-color:#808181;stop-opacity:0.1"/>
</linearGradient>
<path class="st9" d="M248.9,163.3l1.3-0.4c0,0-2.1-14.3-2.1-27.2c0-0.4,0-0.8,0-1.1c0-0.8,0.1-1.6,0.1-2.4c0-1,0.1-1.9,0.1-2.9
	c0.1-12.4-4.8-17.6-4.8-17.6s-5.7-8.2-9.2-9.8c-0.3-0.9-0.6-2.1-0.9-3.5c0.1-0.1,0.2-0.1,0.3-0.2c1.4-1,2.8-2.2,4-3.4
	c1.8-1.6,3.4-3.6,3.4-5.9c0-0.2,0-0.4,0-0.7c-0.3-2.7-3.2-4.8-4.3-7.4c-1-2.2-0.7-4.6-1.5-6.8c-0.9-2.2-3.8-4.3-6-3.1
	c-0.8,0.4-1.3,1.2-2,1.8c-1.7,1.4-4.4,1.6-6.8,0.9c-2.3-0.7-3-3.3-6.3-3.3c0.3,0.1,0.6,0.2,0.8,0.4c-0.3,0-0.5-0.1-0.8-0.1
	c1.4,0.4,2.3,1.6,2.5,3c0,0.1,0,0.2,0,0.3c-1.3,0.7-3,0.3-4.5,0.3c-1.5,0-3.3,0.8-3.1,2c0,0.1,0,0.3,0,0.4c0.2,1,1.5,1.7,1.6,2.6
	c0,0,0,0,0,0.1c-2.9,1.4-6,2.3-9.2,2.7c-0.1,0-0.1,0.1,0.1,0.3h-0.1c-0.6,0.1,3.5,3.3,4,3.5c1.7,0.8,3.8,1.4,5.5,1.9l0.1,0
	c-0.6,1.4-0.9,2.9-0.9,4.5c0,5.5,4,10.1,9.3,11.4c1,1.2,2,2.5,3,3.7h0c0,0-6.2,8.2-6,20.5c0,1.5,0.1,3.1,0.3,4.6
	c-4-0.2-12.5-1.3-19-6c-8.7-6.4-18.5-4.5-16.5-0.6c2,3.8,12.4,7,14.1,7.3c0.1,0,0.5,0.1,1,0.3c-2.1,0.4-3.5,1.1-3.4,2
	c0.2,1.8,9.1,7.3,14.5,7.7c3.5,0.2,7.8,1.3,11.2,2.3c0.3,7.3-1.5,9.6-1.5,9.6s0.5,0.3,1.4,0.8l-0.4,1.1c-2.2,1.3-4.9,2.6-7.3,3.1
	c-3.1,0.6-6.2,1.6-9,3l-12.1,5.8c-2.2,1-3.7,3.1-4,5.5c-0.3,2.5,0.5,5.6,4.5,8c0.3,2,1.5,4.4,4.7,6.5c6.3,4.1,22.7,16.6,25,18.3
	c0,3-0.4,9.2-4.1,10.1c-4.7,1.2-0.9,5.7,2.9,5.5c0.9,0.4,1.9,0.4,2.8,0.2c4-1,18.8-6.1,19.8-13.7c0-0.3,0.1-0.7,0.1-1
	c0.1-1.3-0.3-2.6-0.9-3.7c0.1,0.4,0.3,0.7,0.4,1.1c-1.2-2.8-4.2-4.5-6.5-5.5c0,0,0-0.1,0-0.1c-0.4-0.1-0.7-0.3-1-0.4
	c0-0.2,0-0.4,0-0.6l-23.2-16c0,0,10.1-8.3,20.5-7s12.1-0.6,12.1-0.6s5.3-5.1,5.9-10.9l0.3-0.1C249,164.3,249,163.9,248.9,163.3z"/>
<path class="st10" d="M220.6,204.9c0,0,1,10.4-3.8,11.7s-0.3,6.3,3.5,5.4c3.8-1,17.7-6,18.7-13.6c1-7.6-9.5-10.1-9.5-10.1
	L220.6,204.9z"/>
<path class="st11" d="M220.6,204.9c0,0,1,10.4-3.8,11.7s-0.3,6.3,3.5,5.4c3.8-1,17.7-6,18.7-13.6c1-7.6-9.5-10.1-9.5-10.1
	L220.6,204.9z"/>
<path class="st10" d="M222.5,205.2c0,0,1,10.4-3.8,11.7s-0.3,6.3,3.5,5.4s17.7-6,18.7-13.6c1-7.6-9.5-10.1-9.5-10.1L222.5,205.2z"/>
<path class="st6" d="M232.3,198.9l-8.8,6.7c0,0,0,0.5,0.1,1.2c3.3-0.9,10.6-3.4,10.7-7.2C233.6,199.2,233,199,232.3,198.9z"/>
<rect x="223" y="108" class="st12" width="3.8" height="2.9"/>
<path class="st13" d="M223.2,154c0,0-6,4.7-11,5.9c-2.9,0.6-5.8,1.6-8.5,3l-11.4,5.8c-2.1,1.1-3.5,3.1-3.8,5.4
	c-0.3,3.2,1,7.4,8.7,10l24.4,20.2l7.6-6.3L203.2,178l19.9-12.3V154z"/>
<path class="st6" d="M223.2,154c0,0-6,4.7-11,5.9c-2.9,0.6-5.8,1.6-8.5,3l-11.4,5.8c-2.1,1.1-3.5,3.1-3.8,5.4c-0.3,3.2,1,7.4,8.7,10
	l24.4,20.2l7.6-6.3L203.2,178l19.9-12.3V154z"/>
<path class="st14" d="M219.7,132.8c0,0-11.7,0.3-19.9-6c-8.2-6.3-17.4-4.4-15.5-0.6c1.9,3.8,11.7,7,13.3,7.3
	c1.6,0.3,24.4,6.7,24.4,6.7L219.7,132.8z"/>
<path class="st15" d="M219.7,132.5c0,0-11.7,0.3-19.9-6c-8.2-6.3-17.4-4.4-15.5-0.6c1.9,3.8,11.7,7,13.3,7.3
	c1.6,0.3,24.4,6.7,24.4,6.7L219.7,132.5z"/>
<path class="st13" d="M220.9,151.1l-3.8,11.4c0,0-21.4,13.1-23.1,14.8c-1.4,1.4-3.1,6.7,3.1,11.1c6.3,4.4,23.7,18.3,23.7,18.3
	s13.3-2.9,12.3-8.2l-21.8-15.8c0,0,9.5-8.2,19.3-7s11.4-0.6,11.4-0.6s7.6-7.6,5-14.8S220.9,151.1,220.9,151.1z"/>
<path class="st14" d="M216.2,99.6c0,0,10.8,11.7,10.1,15.2c-0.6,3.5,8.5-10.1,8.5-10.1s-2.9-7-2.2-14.6L216.2,99.6z"/>
<path class="st6" d="M225.6,110.3c0.8-0.8,1.5-1.5,2.3-2.2c1.6-1.3,3.1-2.8,4.4-4.4c2.2-2.9,10.4,9.5,10.4,9.5s5,5.7,4.4,19.3
	c-0.6,13.6,0.8,31.8,0.8,31.8l-1.9,0.5c-3.3,1.1-6.9,0.6-9.7-1.4c-2.5-1.8-5.7-3.6-8.2-3.8c-4.8-0.3-9-3-9-3s2.1-4.9-1.1-20.7
	c-3.2-15.8,4.9-27,4.9-27S223.6,112.3,225.6,110.3z"/>
<path class="st16" d="M249.1,162.8l-1.9,0.6l-1.1,0.4c-3.3,1.1-6.9,0.6-9.7-1.4c-2.5-1.8-5.7-3.6-8.2-3.8
	c-4.7-0.3-10.1-3.8-10.1-3.8s3.1-4.1,0-19.9c-3.1-15.8,4.9-27,4.9-27s0.6,3.4,2.6,1.4c0.7-0.8,1.5-1.5,2.3-2.2
	c1.6-1.3,3.1-2.8,4.4-4.4c2.2-2.9,10.4,9.5,10.4,9.5s5,5.7,4.4,19.3c-0.1,1.4-0.1,2.9-0.1,4.4C247,148.6,249.1,162.8,249.1,162.8z"
	/>
<path class="st6" d="M231.1,131.8l0.3,7c0,0-16.8,0.9-20.2-2.5c-3.5-3.5,9.5,10.2,12.3,11.1c2.7,0.8,9.6,1.5,13.3,1.6
	c2.1,0.1,4.1-1.1,5-3c0.4-0.9,0.6-2,0.4-3c-0.6-4.1,0-13,0-13L231.1,131.8z"/>
<path class="st14" d="M231.1,131.2l0.3,7c0,0-16.8,0.9-20.2-2.5c-3.5-3.5-16.1-2.7-15.8,0c0.1,1.8,8.5,7.3,13.6,7.6
	c5,0.3,11.7,2.6,14.6,3.5c2.7,0.8,9.6,1.5,13.3,1.6c2.1,0.1,4.1-1.1,5-3c0.4-0.9,0.6-2,0.4-3c-0.6-4.1,0-13,0-13L231.1,131.2z"/>
<path class="st6" d="M234.9,111c0,0-7.3,0.9-6.3,11.7c0.9,10.8,2.2,11.7,2.2,11.7s10.8-0.9,12-1.3s0.6-12,0.6-12
	S243.1,110.7,234.9,111z"/>
<path class="st16" d="M234.9,110.7c0,0-7.3,0.9-6.3,11.7c0.9,10.8,2.2,11.7,2.2,11.7s10.8-0.9,12-1.3s0.6-12,0.6-12
	S243.1,110.3,234.9,110.7z"/>
<path class="st6" d="M232.2,96.9c-0.5-2.5,0.5-3.3,0.8-6.5l-16.5,9.5c0,0,1.9,2,4,4.7c1,0.3,1.9,0.4,2.9,0.4
	C227.8,105,230.1,100.3,232.2,96.9z"/>
<circle class="st14" cx="223.2" cy="92.9" r="11.7"/>
<path class="st6" d="M226.1,89.4c-1.8,1.1-1.8,3.7-0.6,5.5c1.2,1.8,3.1,3,5,4.1c0.5,0.3,1.2,0.6,1.8,0.6c0.5-0.1,0.9-0.3,1.3-0.6
	c1.3-1,2.6-2.1,3.8-3.4c1.8-1.7,3.4-3.8,3.1-6.2c-0.3-2.7-3-4.8-4.1-7.3c-0.9-2.1-0.6-4.5-1.4-6.8s-3.6-4.2-5.7-3.1
	c-0.8,0.4-1.3,1.2-1.9,1.8c-1.6,1.4-4.2,1.5-6.4,0.9c-2.2-0.6-2.8-3.3-5.9-3.3c1.5,0.5,2.5,2.1,2.3,3.5c-1.2,0.7-2.8,0.3-4.3,0.3
	s-3.2,0.8-3,2.1c0.2,1.1,1.8,1.9,1.5,2.9c-2.7,1.4-5.6,2.3-8.6,2.6c-0.5,0.1,3.3,3.3,3.7,3.5c1.6,0.8,3.5,1.3,5.2,1.9
	C216.8,90,221.4,90.6,226.1,89.4z"/>
<path class="st17" d="M226.1,89c-1.8,1.1-1.8,3.7-0.6,5.5c1.2,1.8,3.1,3,5,4.1c0.5,0.3,1.2,0.6,1.8,0.6c0.5-0.1,0.9-0.3,1.3-0.6
	c1.3-1,2.6-2.1,3.8-3.4c1.8-1.7,3.4-3.8,3.1-6.2c-0.3-2.7-3-4.8-4.1-7.3c-0.9-2.1-0.6-4.5-1.4-6.8s-3.6-4.2-5.7-3.1
	c-0.8,0.4-1.3,1.2-1.9,1.8c-1.6,1.4-4.2,1.5-6.4,0.9c-2.2-0.6-2.8-3.3-5.9-3.3c1.5,0.5,2.5,2.1,2.3,3.5c-1.2,0.7-2.8,0.3-4.3,0.3
	s-3.2,0.8-3,2.1c0.2,1.1,1.8,1.9,1.5,2.9c-2.7,1.4-5.6,2.3-8.6,2.6c-0.5,0.1,3.3,3.3,3.7,3.5c1.6,0.8,3.5,1.3,5.2,1.9
	C216.8,89.7,221.4,90.3,226.1,89z"/>
<path class="st18" d="M240,204c0.5,1.2,0.7,2.5,0.5,3.7c-1,7.6-14.8,12.7-18.7,13.6c-2,0.5-4.2-0.7-5.1-2.1c0.6,1.6,3.1,3.3,5.4,2.7
	c3.8-1,17.7-6,18.7-13.6C241.1,206.8,240.8,205.3,240,204z"/>
<linearGradient id="SVGID_2_" gradientUnits="userSpaceOnUse" x1="236.8746" y1="164.2876" x2="236.8746" y2="309.41" gradientTransform="matrix(1 0 0 -1 -148.11 381.57)">
	<stop  offset="0" style="stop-color:#808181;stop-opacity:0.25"/>
	<stop  offset="0.54" style="stop-color:#808181;stop-opacity:0.12"/>
	<stop  offset="1" style="stop-color:#808181;stop-opacity:0.1"/>
</linearGradient>
<path class="st19" d="M139.5,212.6L139.5,212.6c-0.3-0.6-1.8-1.9-8.8-2.1c-4.8-0.2-6.5-2.8-6.9-5.2c1.6-0.2,2.8-0.5,3.3-0.9
	c0,0,0-0.1-0.1-0.3l0.1,0c-0.3-1.8-0.5-3.6-0.5-5.4c0-1.6,0.1-3.1,0.5-4.6c0.2-1,0.3-2,0.3-3.1c0-6.1-2.1-16.8-2.1-16.8l-0.3-8.9
	c-0.1-2.3-1.4-4.3-3.4-5.3c-0.7-0.4-1.5-0.6-2.3-0.6c0,0-11.2-1.8-21.3-2.7c-0.7-0.6-3.2-2.1-9-1.3l-3.3-9.7c0-0.1,0-0.3-0.1-0.4
	c0.1-1.3,0.9-3.1,4.8-3.2l0.8,0.7c0,0,0.1-0.3,0.4-0.7c4.8,0,30.8-0.3,32.2,0c1.5,0.4,14.4-2.5,14.8-2.9c5-4.9-14.8-2.5-14.8-2.5
	c-2,0.3-8.3-0.1-14.7-0.6c3.2-4.8,6.2-21,6.2-21s11.4-5.8,8.1-9s-13.3,7.2-13.3,7.2s-4.1,11.9-5.9,15.5c-0.7,1.4-1.6,1.7-2.5,1.6
	c0.4-0.3,0.6-0.5,0.6-0.5s-8.1-6.5-8.9-9c-0.1-0.4-0.3-0.8-0.5-1.2c-0.4-2.3-1.1-4.5-2.8-6c-0.3-0.3-0.6-0.6-0.9-0.8
	c-0.5-0.3-1-0.6-1.4-1l0,0c0.3-1.1,0.5-2.3,0.8-3.4c6-0.7,10.7-5.7,10.7-11.8c0-0.9-0.1-1.8-0.3-2.7c1.8,0.1,3.6-0.7,4.6-2.3
	c1.2-1.8,1.2-4.3,0.1-6.2c-0.4-0.8-1-1.5-1.6-2.1c-1-1.1-2.3-1.9-3.8-2.4c-1.2-0.4-2.6-0.7-3.5-1.5c-0.4-0.6-0.8-1.2-1.2-1.8
	c-0.4-0.6-0.9-1.2-1.4-1.7c-1.8-1.8-4.3-3-6.9-3.5c-3.1-0.6-6.4-0.4-9.6-0.2c-1.2,0.1-2.6,0.3-3.1,1.3c-0.4,0.8-0.1,1.7-0.2,2.6
	c-0.2,2.8-3.3,4.3-6.1,5c-2.8,0.7-6,1.3-7.4,3.7c-1.2,2.2-0.4,4.8,0,7.3c0.6,4.3-0.3,8.7-2.7,12.4c-1.2,1.9-2.8,3.5-3.7,5.5
	c-1.1,2.2-1.3,4.7-0.7,7.1c0.2,0.7,0.4,1.4,0.3,2.1c-0.1,0.6-0.4,1.1-0.8,1.6c-3.3,4.1-8.2,6.7-13.5,7c0.2,0.7,0.6,1.4,1.2,1.9
	c0.8,0.7,1.6,1.3,2.5,1.8c2.5,1.3,5.1,2.2,7.8,2.9c1.8,0.5,3.7,0.8,5.6,0.5c1.9-0.3,3.7-1.4,4.4-3c0.4-1,0.5-2.1,0.9-3.1
	c0.8-2,2.7-3.3,4-5c-0.4,4.4-0.6,8.8-0.6,13.2c0,1.4,0,2.6,0,3.8c0,5-0.4,8.4-3.4,14.6c-0.4,0.6-0.5,1.4-0.5,2.1
	c-0.1,0.8,0.2,1.6,0.8,2.2c-0.2,1.3-0.3,2.5-0.3,3.8c0,4.5,1.5,10.6,9.6,12.1l14.4-0.7c0,0,20.4-4,25.9-1.1c0.9,0.2,1.6,1,1.6,2
	c0,0.3-0.1,0.6-0.1,0.9c-0.1,0.9-0.2,1.9-0.2,2.8c0,6.1,1.3,19.9,1.3,19.9v5.9c-0.9,1.4-2.1,3.4-1.9,4.9c0,0,0,0.1,0,0.1
	c0,0,0,0.1,0,0.1c0,0,0,0.1,0,0.1c0,0,0,0.1,0,0.1c0,0,0,0.1,0,0.1c0,0,0,0.1,0,0.1c0,0,0,0.1,0.1,0.1l0,0.1c0,0.1,0.1,0.1,0.1,0.2
	c1.9,2.1,11.1,6.3,14.1,6.1c3.1-0.2,13.7,0.4,14.1-4.3C139.6,212.9,139.6,212.7,139.5,212.6z"/>
<path class="st20" d="M113.3,203.6c0,0-4.3,5.4-2.5,7.5c1.8,2.1,10.7,6.3,13.6,6.1c3-0.2,13.2,0.4,13.6-4.3c0,0,0.7-2.1-8.6-2.5
	c-9.3-0.4-6.4-10-6.4-10L113.3,203.6z"/>
<path class="st6" d="M62.1,158.5c0,0-4.3,14.7,8.6,17.2l13.9-0.7c0,0,19.7-3.9,25-1.1c0,0,2.1,0.4,1.4,3.2
	c-0.7,2.9,1.1,22.2,1.1,22.2v6.4c0,0,12.2,0,13.6-1.4c0,0-1.1-5.7,0-10.4c1.1-4.6-1.8-19.3-1.8-19.3l-0.3-8.8c0-2.2-1.3-4.3-3.3-5.3
	c-0.7-0.4-1.4-0.5-2.2-0.6c0,0-24.3-3.9-32.9-3.2C76.8,157.4,62.1,158.5,62.1,158.5z"/>
<path class="st21" d="M62.1,158.2c0,0-4.3,14.7,8.6,17.2l13.9-0.7c0,0,19.7-3.9,25-1.1c0,0,2.1,0.4,1.4,3.2
	c-0.7,2.9,1.1,22.2,1.1,22.2v6.4c0,0,12.2,0,13.6-1.4c0,0-1.1-5.7,0-10.4c1.1-4.6-1.8-19.3-1.8-19.3l-0.3-8.8c0-2.2-1.3-4.3-3.3-5.3
	c-0.7-0.4-1.4-0.5-2.2-0.6c0,0-24.3-3.9-32.9-3.2C76.8,157,62.1,158.2,62.1,158.2z"/>
<path class="st14" d="M99,129.2c0,0,2.9,3.6,4.6,0c1.8-3.6,5.7-15.4,5.7-15.4s9.7-10.4,12.9-7.2c3.2,3.2-7.9,8.9-7.9,8.9
	s-3.9,21.8-7.5,22.2s-8.9,0-8.9,0l-1.8-3.9L99,129.2z"/>
<path class="st15" d="M98.6,129.1c0,0,2.9,3.6,4.6,0c1.8-3.6,5.7-15.4,5.7-15.4s9.7-10.4,12.9-7.2c3.2,3.2-7.9,8.9-7.9,8.9
	s-3.9,21.8-7.5,22.2s-8.9,0-8.9,0l-1.8-3.9L98.6,129.1z"/>
<path class="st22" d="M86.1,111.3c0,0,6.4,7.5,7.2,10c0.7,2.5,8.6,8.9,8.6,8.9s-5.7,4.3-4.6,6.4c1.1,2.1-7.5-7.2-7.5-7.2l-10-14.7
	L86.1,111.3z"/>
<path class="st6" d="M86.1,111.3c0,0,6.4,7.5,7.2,10c0.7,2.5,8.6,8.9,8.6,8.9s-5.7,4.3-4.6,6.4c1.1,2.1-7.5-7.2-7.5-7.2l-10-14.7
	L86.1,111.3z"/>
<path class="st12" d="M90.3,102.7c0,0-3.2,10.4-3.2,14.3c0,3.9-13.6-1.1-13.2-3.2s7.9-10,8.2-13.2S90.3,102.7,90.3,102.7z"/>
<path class="st6" d="M79.6,109.9c0,0-12.5-3.2-14.3,15c-1.8,18.2,1.4,20.4-3.9,31.5s36.5,1.4,36.5,1.4s-2.1-2.5-8.9-1.4l-3.2-9.7
	c0,0-1.1-4.3,5-4.3s3.2-12.5,3.2-12.5s-3.2-10.7-5-11.8C87.1,117,83.9,110.6,79.6,109.9z"/>
<path class="st22" d="M79.6,109.1c0,0-12.5-3.2-14.3,15c-1.8,18.2,1.4,20.4-3.9,31.5c-5.4,11.1,36.5,1.4,36.5,1.4s-2.1-2.5-8.9-1.4
	l-3.2-9.7c0,0-1.1-4.3,5-4.3s3.2-12.5,3.2-12.5s-3.2-10.7-5-11.8C87.1,116.3,83.9,109.9,79.6,109.1z"/>
<path class="st14" d="M92.1,134.9c0,0,26.1,2.9,30.4,2.1c0,0,19.2-2.4,14.3,2.5c-0.4,0.4-12.9,3.2-14.3,2.9s-31.8,0-31.8,0l-0.4-3.6
	L92.1,134.9z"/>
<path class="st6" d="M72.1,126l19,17.2c0,0,3.6-7.2,4.6-7.2c1.1,0-12.9-21.1-12.9-21.1s-3.6-4.3-5.7-2.1S68.5,113.4,72.1,126z"/>
<path class="st22" d="M71.7,125.2l19,17.2c0,0,3.6-7.2,4.6-7.2s-12.9-21.1-12.9-21.1s-3.6-4.3-5.7-2.1
	C74.6,114.2,68.2,112.7,71.7,125.2z"/>
<ellipse class="st14" cx="87.2" cy="97.3" rx="11.8" ry="11.8"/>
<path class="st6" d="M97.5,94.4c2,0.8,4.5-0.1,5.7-2c1.2-1.8,1.1-4.3,0.1-6.2c-1-1.9-2.8-3.3-4.9-4c-1.2-0.4-2.6-0.7-3.5-1.6
	c-0.6-0.6-1-1.3-1.4-2c-1.7-2.6-4.6-4.1-7.7-4.8c-3-0.6-6.2-0.4-9.3-0.2c-1.1,0.1-2.5,0.3-3,1.3c-0.4,0.8-0.1,1.7-0.2,2.6
	c-0.2,2.8-3.2,4.3-5.9,4.9s-5.8,1.3-7.1,3.7c-1.2,2.2-0.3,4.8,0,7.3c0.6,4.3-0.3,8.6-2.6,12.2c-1.2,1.8-2.7,3.5-3.6,5.4
	c-1,2.2-1.3,4.7-0.7,7c0.2,0.7,0.4,1.4,0.3,2.1c-0.1,0.6-0.4,1.1-0.8,1.6c-3.2,4-7.9,6.6-13.1,6.9c0.4,1.5,1.9,2.5,3.3,3.2
	c2.4,1.3,4.9,2.2,7.6,2.9c1.8,0.5,3.6,0.8,5.4,0.5s3.5-1.4,4.3-3c0.4-1,0.5-2.1,0.9-3c0.9-2.2,3.1-3.5,4.4-5.6
	c1.2-1.9,1.6-2.2,1.9-4.4c0.3-2.3,1-4.7,2.8-6c1.9-1.4,4.6-1.1,6.8-0.1c2.1,1,3.5,0.6,5.3,2.2c3.1,2.7,6.7,5,10.4,6.7
	c-0.4-3.1-0.9-6.6-3.5-8.4c-0.7-0.5-1.6-0.9-2-1.8c-0.6-1.3,0.4-2.9,0-4.3c-0.5-1.4-2.3-1.9-3-3.1c-0.7-1-0.5-2.5,0.1-3.5
	c0.6-1.1,1.6-1.9,2.6-2.6c0.9-0.7,1.8-1.3,2.7-2c0.8-0.5,1.5-1.1,2.2-1.9c0.4-0.5,0.6-1.6,1.1-1.9C94.4,91.8,96.3,93.9,97.5,94.4z"
	/>
<path class="st17" d="M97.1,94c2,0.8,4.5-0.1,5.7-2c1.2-1.8,1.1-4.3,0.1-6.2c-1-1.9-2.8-3.3-4.9-4c-1.2-0.4-2.6-0.7-3.5-1.6
	c-0.6-0.6-1-1.3-1.4-2c-1.7-2.6-4.6-4.1-7.7-4.8c-3-0.6-6.2-0.4-9.3-0.2c-1.1,0.1-2.5,0.3-3,1.3c-0.4,0.8-0.1,1.7-0.2,2.6
	c-0.2,2.8-3.2,4.3-5.9,4.9c-2.7,0.7-5.8,1.3-7.1,3.7c-1.2,2.2-0.3,4.8,0,7.3c0.6,4.3-0.3,8.6-2.6,12.2c-1.2,1.8-2.7,3.5-3.6,5.4
	c-1,2.2-1.3,4.7-0.7,7c0.2,0.7,0.4,1.4,0.3,2.1c-0.1,0.6-0.4,1.1-0.8,1.6c-3.2,4-7.9,6.6-13.1,6.9c0.4,1.5,1.9,2.5,3.3,3.2
	c2.4,1.3,4.9,2.2,7.6,2.9c1.8,0.5,3.6,0.8,5.4,0.5s3.5-1.4,4.3-3c0.4-1,0.5-2.1,0.9-3c0.9-2.2,3.1-3.5,4.4-5.6
	c1.2-1.9,1.6-2.2,1.9-4.4s1-4.7,2.8-6c1.9-1.4,4.6-1.1,6.8-0.1c2.1,1,3.5,0.6,5.3,2.2c3.1,2.7,6.7,5,10.4,6.7
	c-0.4-3.1-0.9-6.6-3.5-8.4c-0.7-0.5-1.6-0.9-2-1.8c-0.6-1.3,0.4-2.9,0-4.3s-2.3-1.9-3-3.1c-0.7-1-0.5-2.5,0.1-3.5
	c0.6-1.1,1.6-1.9,2.6-2.6c0.9-0.7,1.8-1.3,2.7-2c0.8-0.5,1.5-1.1,2.2-1.9c0.4-0.5,0.6-1.6,1.1-1.9C94,91.5,96,93.6,97.1,94z"/>
<g class="st23">
	<path class="st24" d="M122.5,203.1c0-1,0.2-1.9,0.4-2.8l-0.2,0.1C122.6,201.3,122.5,202.2,122.5,203.1z"/>
	<path class="st24" d="M124.4,216.5c-2.9,0.2-11.8-3.9-13.6-6.1c-0.3-0.3-0.4-0.6-0.4-1c-0.1,0.6,0,1.3,0.4,1.7
		c1.8,2.1,10.7,6.3,13.6,6.1c3-0.2,13.2,0.4,13.6-4.3c0-0.1,0-0.3,0-0.4C137.1,216.8,127.3,216.3,124.4,216.5z"/>
</g>
<rect x="138.5" y="109.7" class="st25" width="0.4" height="14.7"/>
<rect x="138.8" y="109.7" class="st25" width="0.4" height="14.7"/>
<rect x="139.2" y="109.7" class="st25" width="0.4" height="14.7"/>
<rect x="139.6" y="109.7" class="st25" width="0.4" height="14.7"/>
<rect x="139.9" y="109.7" class="st25" width="0.4" height="14.7"/>
<rect x="140.3" y="109.7" class="st25" width="0.4" height="14.7"/>
<rect x="140.6" y="109.7" class="st25" width="0.4" height="14.7"/>
<text transform="matrix(1 0 0 1 143.4963 136.5298)" class="st26 st27 st28">MAMIE</text>
<path class="st1" d="M465.7,117l-1-0.3c-7.4-2-14.7-4.4-22.3-5.5c-30.4-4.4-60.4,12.7-80.9,35.6c-16.3,18.1-28.3,40.4-32.7,64.3
	c-4.4,23.7-1.2,48.3,10.7,69.3c9.7,17,13.9,37.4,31.9,48.7c13.3,8.3,29.9,9.1,45.6,9.6l63.2,2c18,0.6,36.3,1.1,54-3
	c9.3-2.2,15-4.7,24.6-4.2c9.3,0.4,18.5,0.6,27.7-1.2c12.7-2.4,25.2-8.8,32.2-19.6c7.5-11.5,7.8-26.1,5.8-39.6s-6-26.8-6.5-40.4
	c-0.5-15.3,3.4-30.3,5-45.4c1.6-15.2,0.2-31.7-9.3-43.6c-8.4-10.5-21.9-15.8-35.3-17.5c-13.4-1.7-26.9-0.3-40.4,0
	C513.7,126.4,489.3,123.4,465.7,117z"/>
<path class="st29" d="M439.5,266.3l0.8,3.6c0.2,1.1,0.5,2.1,1,3c0.9,1.5,2.2,2.8,3.7,3.6c2.3,1.5,5,2.8,7.7,2.8
	c0.7,0.1,1.3-0.3,1.5-1c0-0.1,0-0.3,0-0.4c0.1-4.7-4.7-6.1-5-10.8c-0.2-2.6-0.3-5.3-0.5-7.9c-0.2-3.2-1.4-9.1-4.9-10.3
	c-7.7-2.7-6.2,9.7-5.3,13.3L439.5,266.3z"/>
<path class="st29" d="M452.2,263.2l0.2,0.3c0.7,0.9,1,2.1,0.9,3.2c-0.2,1.2-0.1,2.5,0.2,3.7c0.6,1.7,2.1,2.7,3.6,3.5
	c2.6,1.5,5.6,2.3,8.6,2.4c0.4,0,0.9-0.1,1.3-0.3c0.6-0.5,1.1-1.2,1.2-2c0.1-0.2,0.1-0.5,0.1-0.7c-0.1-0.3-0.2-0.6-0.4-0.8
	c-1.3-1.4-3-2.4-4.4-3.6c-1.6-1.2-2.6-3-2.7-5c-0.1-2.5-0.3-5-0.5-7.5c-0.3-3.9-3-13.9-8.9-9.4c-3.6,2.7-2.5,7.5-1.2,11.1
	C450.7,259.9,451.4,261.6,452.2,263.2z"/>
<path class="st29" d="M505.9,260.4l-0.4,3.6c-0.1,1.1-0.3,2.1-0.6,3.1c-0.6,1.5-1.5,2.8-2.7,3.9c-1.8,1.7-3.8,3.2-6.1,3.3
	c-0.3,0-0.6,0-0.9-0.2c-0.3-0.3-0.4-0.7-0.4-1.1c-0.5-4.7,3.3-6.4,3.2-11.1c-0.1-2.6-0.2-5.3-0.2-7.9c-0.1-3.2,0.4-9.2,3.1-10.6
	c6.1-3.2,5.8,9.2,5.4,12.9L505.9,260.4z"/>
<path class="st29" d="M495.2,258.2l-0.1,0.3c-0.5,1-0.6,2.2-0.5,3.3c0.2,1.2,0.3,2.5,0.1,3.7c-0.4,1.5-1.4,2.8-2.7,3.7
	c-2,1.6-4.3,2.8-6.8,2.9c-0.4,0-0.7,0-1.1-0.2c-0.6-0.5-1-1.2-1.2-1.9c-0.1-0.2-0.2-0.5-0.2-0.7c0-0.3,0.1-0.6,0.3-0.8
	c0.9-1.5,2.2-2.6,3.3-3.9c1.3-1.4,1.9-3.3,1.8-5.2c-0.2-2.5-0.1-5-0.2-7.5c-0.1-3.9,1.3-14,6.5-10c3.2,2.5,2.7,7.3,1.9,11
	C496.2,254.7,495.8,256.5,495.2,258.2z"/>
<path class="st30" d="M439.3,173.5c2.7-0.3,5.4-0.3,8-0.1c2.6,0.2,5.2,1.2,7.3,2.8c1.5,1.2,2.7,2.6,3.7,4.3c1.3,2.1,2.4,4.3,3.4,6.5
	c1.8,4.1,3.1,8.5,2.5,12.9c0,0.1,0,0.2-0.1,0.3c-0.1,0.1-0.2,0.1-0.3,0.1c-9.5,0.4-19.1,0.2-28.6,0.6c-5.3,0.2-10.8,0.6-15.8-0.9
	c0.9-2.3,1.5-4.8,1.8-7.2c0.4-2.8,0.3-5.8,1.6-8.4c0.9-1.7,2-3.2,3.4-4.5c1.3-1.4,2.7-2.7,4.3-3.7c1.4-0.9,2.9-1.4,4.5-1.6
	C436.4,174.3,437.7,173.6,439.3,173.5z"/>
<linearGradient id="SVGID_3_" gradientUnits="userSpaceOnUse" x1="472.5033" y1="90.7495" x2="472.0311" y2="130.1725" gradientTransform="matrix(1 0 0 -1 -26.81 309.3)">
	<stop  offset="1.000000e-02" style="stop-color:#020203"/>
	<stop  offset="0.13" style="stop-color:#020203;stop-opacity:0.69"/>
	<stop  offset="1" style="stop-color:#020203;stop-opacity:0"/>
</linearGradient>
<path class="st31" d="M451.7,188c-1.5,2.1-2.4,4.7-2.6,7.3c-1.6-0.7-3.4-1-5.2-0.9c-1,0.1-2,0-2.9-0.3c-0.5-0.3-1-0.7-1.3-1.2
	l-3.4-3.8c-1-1.1-2.4-2.4-3.8-1.8c-0.7,0.4-1.3,1-1.7,1.8c-1.8,3.4-2.7,7.3-2.4,11.1c2.2,0.5,4.5,0.8,6.8,0.8
	c8.4,0.4,16.8,0.4,25.1,0.5c0.7,0.1,1.4-0.1,2-0.4c2.4-1.5-3.1-4.9-4.1-5.9C455.7,193,453.6,190.6,451.7,188z"/>
<path class="st29" d="M452.9,167.4c-0.4,1.1-1,2.1-1.8,3c-0.8,0.8-1.8,1.5-2.9,1.9c-1,0.5-2,0.7-3.1,0.8c-2.2,0-4.2-0.9-5.7-2.5
	c-1.4-1.5-2.6-3.3-3.5-5.1c0,0.3-0.5,0.4-0.8,0.3c-0.3-0.2-0.5-0.4-0.6-0.7c-0.5-0.9-0.7-2-0.8-3c0-0.2,0-0.5,0.1-0.7
	c0.4-0.7,1.4-0.4,2.1-0.1c0.6-1.1,0.5-2.5,0.9-3.7c0.8-2.3,3.4-3.5,5.8-4.4c2.2-1,4.6-1.6,7-1.8c0.7-0.1,1.3,0,1.9,0.3
	c0.6,0.3,1.1,0.7,1.5,1.2c1,0.9,1.7,2.1,2,3.4c0,0.9-0.1,1.9-0.3,2.8C454.6,161.9,453.9,164.7,452.9,167.4z"/>
<path class="st29" d="M440.2,175.8c-0.1,0.8,0,1.6,0.3,2.4c0.7,1.1,2.3,1.4,3.6,1.2c0.7-0.1,1.5-0.3,2.1-0.7
	c0.7-0.5,1.2-1.3,1.4-2.2c0.2-0.9,0.3-1.7,0.3-2.6l0.1-3.3c0-0.1,0-0.2-0.1-0.2c-0.1,0-0.2-0.1-0.2-0.1h-3.6c-0.8,0-2.4-0.3-3.1,0.2
	C439.9,171.2,440.2,174.7,440.2,175.8z"/>
<path class="st32" d="M433.9,161.9c-0.3,0.2-0.5,0.4-0.7,0.7c-0.2,0.3-0.5,0.4-0.9,0.4c-0.3-0.1-0.5-0.3-0.6-0.5
	c-0.7-1.1-1.1-2.3-1.1-3.6c0-1.3,0.8-2.5,2-3c0.2-0.1,0.3-0.1,0.4-0.3c0.1-0.2,0-0.3-0.1-0.4c-0.7-1.1-1-2.3-1-3.6
	c0-0.4,0.1-0.9,0.3-1.3c0.6-0.7,1.4-1,2.2-1.1c1.2-0.2,2.7-0.1,3.4,0.8c0.1-0.6,0.4-1.1,0.8-1.4c0.5-0.4,1.1-0.5,1.7-0.2
	c0.8-1.5,2.3-2.6,3.9-2.9c0.8-0.2,1.7-0.2,2.5,0.1c1.3,0.5,2.2,1.7,3,2.8c1.6-0.6,3.3,0,4.2,1.4c0.1,0.2,0.2,0.4,0.3,0.5
	c0.4,0.2,0.8,0.3,1.3,0.2c1.5,0,2.8,0.9,3.3,2.2c0.4,1.4-0.1,2.8-1.3,3.6c-0.5,0.2-1,0.6-1.3,1c-0.2,0.3-0.3,0.7-0.5,1
	c-0.4,0.4-1,0.6-1.5,0.6c-2.5,0.1-4.8-1-6.3-3c-0.2-0.2-0.4-0.5-0.7-0.5c-0.2,0-0.3,0.1-0.4,0.2c-1.4,0.8-3.1,0.7-4.4-0.3
	c-0.4-0.3-0.9-0.8-1.4-0.7c-0.9,0.2-0.7,1.8-1.5,2.2c-0.1,0-0.2,0.1-0.3,0.2c-0.1,0.1-0.1,0.3-0.1,0.4c0.1,0.7,0.1,1.4,0,2.1
	c-0.4,1.3-1.1,2.4-2,3.3C435.9,163.9,434.6,162.8,433.9,161.9z"/>
<path class="st30" d="M497,173.5c-2.7-0.3-5.4-0.3-8-0.1c-2.7,0.2-5.2,1.2-7.4,2.8c-1.5,1.2-2.7,2.6-3.7,4.3
	c-1.3,2.1-2.4,4.2-3.4,6.5c-1.8,4.1-3.1,8.5-2.5,12.9c0,0.1,0,0.2,0.1,0.3c0.1,0.1,0.2,0.1,0.3,0.1c9.5,0.4,19.1,0.2,28.6,0.6
	c5.3,0.2,10.8,0.6,15.8-0.9c-0.9-2.3-1.5-4.7-1.8-7.2c-0.4-2.8-0.3-5.8-1.6-8.4c-0.9-1.7-2-3.2-3.4-4.5c-1.3-1.4-2.7-2.6-4.3-3.7
	c-1.3-0.9-2.9-1.4-4.5-1.6C499.8,174.3,498.6,173.6,497,173.5z"/>
<linearGradient id="SVGID_4_" gradientUnits="userSpaceOnUse" x1="520.7964" y1="99.9941" x2="521.7325" y2="122.6174" gradientTransform="matrix(1 0 0 -1 -26.81 309.3)">
	<stop  offset="1.000000e-02" style="stop-color:#020203"/>
	<stop  offset="0.13" style="stop-color:#020203;stop-opacity:0.69"/>
	<stop  offset="1" style="stop-color:#020203;stop-opacity:0"/>
</linearGradient>
<path class="st33" d="M497,173.5c-2.7-0.3-5.4-0.3-8-0.1c-2.7,0.2-5.2,1.2-7.4,2.8c-1.5,1.2-2.7,2.6-3.7,4.3
	c-1.3,2.1-2.4,4.2-3.4,6.5c-1.8,4.1-3.1,8.5-2.5,12.9c0,0.1,0,0.2,0.1,0.3c0.1,0.1,0.2,0.1,0.3,0.1c9.5,0.4,19.1,0.2,28.6,0.6
	c5.3,0.2,10.8,0.6,15.8-0.9c-0.9-2.3-1.5-4.7-1.8-7.2c-0.4-2.8-0.3-5.8-1.6-8.4c-0.9-1.7-2-3.2-3.4-4.5c-1.3-1.4-2.7-2.6-4.3-3.7
	c-1.3-0.9-2.9-1.4-4.5-1.6C499.8,174.3,498.6,173.6,497,173.5z"/>
<path class="st29" d="M483.4,167.4c0.4,1.1,1,2.1,1.8,3c0.8,0.8,1.8,1.5,2.9,1.9c1,0.5,2,0.7,3.1,0.8c2.2,0,4.3-0.9,5.7-2.5
	c1.4-1.5,2.6-3.3,3.5-5.1c0,0.3,0.5,0.4,0.8,0.3c0.3-0.2,0.5-0.4,0.6-0.7c0.5-0.9,0.7-2,0.8-3c0-0.2,0-0.5-0.1-0.7
	c-0.4-0.7-1.4-0.4-2.1-0.1c-0.6-1.1-0.5-2.5-0.9-3.7c-0.8-2.3-3.4-3.5-5.8-4.4c-2.2-1-4.6-1.6-7-1.9c-0.7-0.1-1.3,0-1.9,0.3
	c-0.6,0.3-1.1,0.7-1.5,1.2c-1,0.9-1.7,2.1-2,3.4c0,0.9,0.1,1.9,0.3,2.8C481.7,161.9,482.4,164.7,483.4,167.4z"/>
<path class="st32" d="M479.6,150.4c-0.8,1.7-1.1,3.6-1,5.6c0,1.5,0.2,3.1,0.6,4.5c0.5,1.3,1.2,2.6,1.4,4c0.3,2.4-1.2,4.7-1.2,7.2
	c0,0.7,0.2,1.3,0.6,1.8c0.9,1.1,2.6,0.9,3.9,0.5c0.3,0,0.5-0.2,0.7-0.4c0.2-0.4,0.3-0.8,0.1-1.2l-2.2-11.2c-0.1-0.3-0.1-0.7,0-1
	c0.1-0.3,0.3-0.6,0.6-0.8c1.6-1.8,2.4-4.2,2.1-6.6c0.5,1.2,1.6,2.2,2.9,2.5c1.3,0.4,2.6,0.5,4,0.4l3.2,4.8c0.1,0.2,0.3,0.4,0.5,0.5
	c0.8,0.4,1.7-0.5,2.5-0.2c0.7,0.9,0.9,2,0.7,3.1c-0.2,1.1-0.6,2.1-0.8,3.2c-0.4,1.6-0.3,3.3,0.2,4.9c0.1,0.5,0.4,0.9,0.8,1.2
	c0.3,0.2,0.7,0.3,1.1,0.3l7,1l0-8.9c0.1-2.3-0.1-4.6-0.4-6.9c-0.2-1.8-1-3.5-2.2-4.8c-0.8-0.6-1.6-1.2-2.4-1.7
	c-1.5-1.1-2.7-2.7-4.3-3.7c-3.2-2.2-7.1-2.1-10.8-1.5C484.1,147.5,481.3,147,479.6,150.4z"/>
<path class="st29" d="M496.1,175.8c0.1,0.8,0,1.6-0.3,2.4c-0.7,1.1-2.3,1.4-3.6,1.2c-0.7-0.1-1.5-0.3-2.1-0.7
	c-0.7-0.5-1.2-1.3-1.4-2.2c-0.2-0.9-0.3-1.7-0.3-2.6l-0.1-3.3c0-0.1,0-0.2,0.1-0.2c0.1,0,0.2-0.1,0.2-0.1h3.6c0.8,0,2.4-0.3,3.1,0.2
	C496.4,171.2,496.1,174.7,496.1,175.8z"/>
<path class="st30" d="M500.2,175.2c0.5-0.2,1.2,0.2,1.2,0.7c0.4-0.6,0.8-1.2,1-1.9c0.3-0.7,0.8-1.2,1.4-1.5c0.7-0.2,1.6,0.2,1.6,0.9
	c0.8-1.9,1.8-3.6,3-5.3c1.2-1.6,3-2.8,5-3.1c0.8,1,0.4,2.5-0.2,3.7c-0.9,2-2,3.8-3.3,5.5c0.8-0.3,1.9-0.6,2.5,0.1
	c0.4,0.5,0.4,1.2,0,1.7c-0.4,0.5-0.8,0.9-1.3,1.2c0.9-0.1,1.5,1,1.2,1.9c-0.3,0.8-1,1.5-1.9,1.8c-0.8,0.3-1.6,0.7-2.4,1.1
	c-0.3,0.2-0.6,0.5-0.9,0.8c-1.8,1.2-6.5,1-8.2-0.6C497.4,180.6,498.2,176,500.2,175.2z"/>
<path class="st30" d="M482.2,179c-0.1-1.5,1.4-3,2.8-2.5l-2.1-3.8c-0.3-0.6-0.5-1.5,0.1-1.7c0.5-0.1,1.1,0.3,1.4,0
	c0.1-0.1,0.2-0.3,0.1-0.5c0-1,0-2,0.1-3c0.1-1,0.7-1.9,1.5-2.5c0.2-0.1,0.4-0.2,0.6-0.1c0.3,0.1,0.4,0.4,0.5,0.7l2.6,7.3
	c0.7-0.5,0.8-1.5,1.5-2c0.9-0.6,2.2,0.1,2.6,1.1c0.3,1,0.2,2.1-0.2,3.1c0.9-0.5,2-0.9,3-0.9c-0.1,2.1-0.5,4.2-0.9,6.2
	c0,0.4-0.3,0.7-0.7,0.6c0,0,0,0,0,0C492.6,181.4,482.6,183.6,482.2,179z"/>
<linearGradient id="SVGID_5_" gradientUnits="userSpaceOnUse" x1="533.1581" y1="123.7198" x2="532.8516" y2="134.6794" gradientTransform="matrix(1 0 0 -1 -26.81 309.3)">
	<stop  offset="1.000000e-02" style="stop-color:#020203"/>
	<stop  offset="0.13" style="stop-color:#020203;stop-opacity:0.69"/>
	<stop  offset="1" style="stop-color:#020203;stop-opacity:0"/>
</linearGradient>
<path class="st34" d="M500.2,175.2c0.5-0.2,1.2,0.2,1.2,0.7c0.4-0.6,0.8-1.2,1-1.9c0.3-0.7,0.8-1.2,1.4-1.5c0.7-0.2,1.6,0.2,1.6,0.9
	c0.8-1.9,1.8-3.6,3-5.3c1.2-1.6,3-2.8,5-3.1c0.8,1,0.4,2.5-0.2,3.7c-0.9,2-2,3.8-3.3,5.5c0.8-0.3,1.9-0.6,2.5,0.1
	c0.4,0.5,0.4,1.2,0,1.7c-0.4,0.5-0.8,0.9-1.3,1.2c0.9-0.1,1.5,1,1.2,1.9c-0.3,0.8-1,1.5-1.9,1.8c-0.8,0.3-1.6,0.7-2.4,1.1
	c-0.3,0.2-0.6,0.5-0.9,0.8c-1.8,1.2-6.5,1-8.2-0.6C497.4,180.6,498.2,176,500.2,175.2z"/>
<linearGradient id="SVGID_6_" gradientUnits="userSpaceOnUse" x1="516.6773" y1="123.248" x2="516.3625" y2="134.2158" gradientTransform="matrix(1 0 0 -1 -26.81 309.3)">
	<stop  offset="1.000000e-02" style="stop-color:#020203"/>
	<stop  offset="0.13" style="stop-color:#020203;stop-opacity:0.69"/>
	<stop  offset="1" style="stop-color:#020203;stop-opacity:0"/>
</linearGradient>
<path class="st35" d="M482.2,179c-0.1-1.5,1.4-3,2.8-2.5l-2.1-3.8c-0.3-0.6-0.5-1.5,0.1-1.7c0.5-0.1,1.1,0.3,1.4,0
	c0.1-0.1,0.2-0.3,0.1-0.5c0-1,0-2,0.1-3c0.1-1,0.7-1.9,1.5-2.5c0.2-0.1,0.4-0.2,0.6-0.1c0.3,0.1,0.4,0.4,0.5,0.7l2.6,7.3
	c0.7-0.5,0.8-1.5,1.5-2c0.9-0.6,2.2,0.1,2.6,1.1c0.3,1,0.2,2.1-0.2,3.1c0.9-0.5,2-0.9,3-0.9c-0.1,2.1-0.5,4.2-0.9,6.2
	c0,0.4-0.3,0.7-0.7,0.6c0,0,0,0,0,0C492.6,181.4,482.6,183.6,482.2,179z"/>
<path class="st30" d="M513.5,180.8c1.1,0.1,2.1,0.3,3.2,0.5c0.7,4.2-0.2,8.5-2.5,12.1c-4.1,6.2-12.6,9-19.7,7.4
	c-4-0.9-7.6-3.3-10-6.6c-1.3-1.8-2.4-3.8-3.1-6c-0.5-1.4-1.9-4.8-1.1-6.2c0.8-1.4,4.4-1.3,5.8-1.5c2.6-0.2,5.1-0.3,7.7-0.3
	c5.6,0,11.2,0.1,16.8,0.4C511.5,180.7,512.5,180.7,513.5,180.8z"/>
<linearGradient id="SVGID_7_" gradientUnits="userSpaceOnUse" x1="506.7302" y1="118.6214" x2="543.7065" y2="118.6214" gradientTransform="matrix(1 0 0 -1 -26.81 309.3)">
	<stop  offset="1.000000e-02" style="stop-color:#020203"/>
	<stop  offset="0.13" style="stop-color:#020203;stop-opacity:0.69"/>
	<stop  offset="1" style="stop-color:#020203;stop-opacity:0"/>
</linearGradient>
<path class="st36" d="M513.5,180.8c1.1,0.1,2.1,0.3,3.2,0.5c0.7,4.2-0.2,8.5-2.5,12.1c-4.1,6.2-12.6,9-19.7,7.4
	c-4-0.9-7.6-3.3-10-6.6c-1.3-1.8-2.4-3.8-3.1-6c-0.5-1.4-1.9-4.8-1.1-6.2c0.8-1.4,4.4-1.3,5.8-1.5c2.6-0.2,5.1-0.3,7.7-0.3
	c5.6,0,11.2,0.1,16.8,0.4C511.5,180.7,512.5,180.7,513.5,180.8z"/>
<ellipse class="st1" cx="483" cy="288.1" rx="141.5" ry="17.9"/>
<path class="st30" d="M514.7,286.8c-0.2,0-0.5-0.1-0.7-0.2c-0.6-0.4-0.3-1.4,0.2-1.9c1.1-1.2,2.4-2.3,3.7-3.2l5.2-3.8
	c0.5-0.4,1-0.7,1.5-0.9c0.7-0.2,1.4-0.3,2.1-0.3l4.5-0.2c0.3,0,0.6,0,0.9,0.1c0.3,0.2,0.6,0.5,0.7,0.9c0.6,1.6,1,3.3,1,5
	c0.1,0.8,0,1.5-0.3,2.2c-0.6,1.1-2.2,1.2-3.3,1.4c-1.7,0.3-3.5,0.5-5.2,0.7C521.5,287,518.1,287,514.7,286.8z"/>
<polygon class="st30" points="588.5,167.7 585,288.2 579,288.2 579,249.2 543.6,249.2 543.6,288.2 537.5,288.2 537.5,243.3 
	580.1,242.7 581.3,167.7 "/>
<polygon class="st30" points="359.7,167.7 363.2,288.2 369.2,288.2 369.2,249.2 404.6,249.2 404.6,288.2 410.7,288.2 410.7,243.3 
	368.1,242.7 366.9,167.7 "/>
<linearGradient id="SVGID_8_" gradientUnits="userSpaceOnUse" x1="565.1006" y1="62.7224" x2="560.6688" y2="177.479" gradientTransform="matrix(1 0 0 -1 0 345)">
	<stop  offset="1.000000e-02" style="stop-color:#020203"/>
	<stop  offset="0.13" style="stop-color:#020203;stop-opacity:0.69"/>
	<stop  offset="1" style="stop-color:#020203;stop-opacity:0"/>
</linearGradient>
<polygon class="st37" points="588.5,167.7 585,288.2 579,288.2 579,249.2 543.6,249.2 543.6,288.2 537.5,288.2 537.5,243.3 
	580.1,242.7 581.3,167.7 "/>
<linearGradient id="SVGID_9_" gradientUnits="userSpaceOnUse" x1="381.3738" y1="52.3263" x2="393.9653" y2="265.7439" gradientTransform="matrix(1 0 0 -1 0 345)">
	<stop  offset="1.000000e-02" style="stop-color:#020203"/>
	<stop  offset="0.13" style="stop-color:#020203;stop-opacity:0.69"/>
	<stop  offset="1" style="stop-color:#020203;stop-opacity:0"/>
</linearGradient>
<polygon class="st38" points="359.7,167.7 363.2,288.2 369.2,288.2 369.2,249.2 404.6,249.2 404.6,288.2 410.7,288.2 410.7,243.3 
	368.1,242.7 366.9,167.7 "/>
<path class="st32" d="M579.7,231c0.5,0.3-0.5,3.4-0.6,3.7c-1,2.8-3.2,5-5.9,6.1c-5.1,2.3-11.3,1.3-16.7,1.7c-7.7,0.5-15.3,0.8-23,1
	c0.2,12.3,0.3,24.5,0.4,36.8c-3.1-0.5-6.1-1.5-8.9-3c-0.5-0.2-0.9-0.6-1.2-1c-0.2-0.5-0.4-1-0.4-1.5l-1.7-12
	c-0.9-6.7-1.8-13.5-1.4-20.3c0.4-3.8,0-7.7-1.1-11.3c-0.5-1.8-0.5-2.7,0.8-4c2.4-2.4,6.8-3.2,9.9-4c8.5-2,17.2-2.8,25.9-3.4
	c1-0.1,2-0.1,3.1-0.2L579.7,231z"/>
<path class="st29" d="M530.7,139.8c0.4,2.3,0.8,4.7-0.2,6.8c-0.3,0.7-0.8,1.4-0.4,2.1c0.2,0.3,0.6,0.6,0.9,0.7
	c1.8,1.1,2.8,3,3.8,4.8c1,1.8,2.4,3.7,4.4,4.1s4.2-0.6,6.3-0.5c2.4,0.2,4.4,2,6,3.9c0.2,0.3,0.5,0.5,0.8,0.6c0.3,0,0.5-0.1,0.8-0.3
	c2.1-1.4,4.1-3,5.9-4.8c0.1-0.1,0.3-0.3,0.3-0.5c0-0.2-0.1-0.4-0.2-0.6c-3.5-5.8-3.6-13-4.7-19.6c-0.6-3.4-1.5-6.8-3.7-9.4
	c-3.3-3.8-8.9-4.9-13.9-4c-1,0.1-2,0.5-2.9,1.1c-0.8,0.7-1.4,1.5-1.8,2.4C529.7,130.8,529.8,135.3,530.7,139.8z"/>
<path class="st32" d="M545.4,146.1c-3.2,1.2-6.7,1-10,1.9c-0.9,0.2-1.6,0.6-2.2,1.3c-0.5,0.8-0.6,1.8-0.3,2.7
	c0.3,1.2,0.7,2.5,1.1,3.6c0.7,1.8,1.5,3.8,3.2,4.9c1,0.6,2.2,0.9,3.3,0.9c1.8,0.3,3.6,0.1,5.3-0.7c1.7-0.9,2.7-2.7,3.6-4.3l3.4-6
	c1-1.8,2-3.8,1.5-5.7c-0.5-2-1.9-3.4-3.6-2S547.5,145.3,545.4,146.1z"/>
<path class="st30" d="M572.2,162.7c5.9,8.7,9,19,9.2,29.5c0.1,5-0.9,9.1-0.4,14.1c0.7,6.1,0.9,12.2,0.4,18.3
	c-0.1,2.3-0.6,4.5-1.4,6.7c-1.8,4.1-5.5,7.1-9.9,8c-9.8,1.9-19.1-7.2-22.9-15.2c-1-1.8-1.5-3.8-1.6-5.9c0-2.5,1.1-4.8,1.9-7.1
	c1.8-5.2,1.7-10,2-15.3c0.2-5.3,0.8-10.7,0.8-16c0-3.8-0.1-7.6,0.6-11.4c0.7-3.7,2.4-7.5,5.3-9.8C562.3,153.3,568.3,157,572.2,162.7
	z"/>
<linearGradient id="SVGID_10_" gradientUnits="userSpaceOnUse" x1="528.2745" y1="89.937" x2="601.6531" y2="114.1673" gradientTransform="matrix(1 0 0 -1 -26.81 309.3)">
	<stop  offset="1.000000e-02" style="stop-color:#020203"/>
	<stop  offset="0.13" style="stop-color:#020203;stop-opacity:0.69"/>
	<stop  offset="0.77" style="stop-color:#020203;stop-opacity:0.16"/>
	<stop  offset="1" style="stop-color:#020203;stop-opacity:0"/>
</linearGradient>
<path class="st39" d="M573.3,163.4c1.2,1.8,2.3,3.7,3.3,5.6c4.2,8.3,5.3,17.8,5.2,27.1c-0.1,9.3-1.3,18.5-1.5,27.8
	c0.1,2.4-0.1,4.7-0.7,7c-1.2,3.7-4.1,6.6-7.7,7.8c-10.2,3.5-19.4-5.8-23.4-14.1c-1-1.8-1.5-3.8-1.6-5.9c0-2.5,1.1-4.8,1.9-7.1
	c1.8-5.2,1.7-10,2-15.3c0.2-5.3,0.7-10.7,0.7-16c0-3.8-0.1-7.6,0.6-11.4c0.7-3.7,2.4-7.4,5.3-9.8C564,153.7,569.5,158,573.3,163.4z"
	/>
<path class="st30" d="M566.8,192.8c-0.9,3.1-2.1,5.6-6,7.4c-3.4,1.6-7.3,1.9-11.1,2c-4.5,0.2-9,0-13.5-0.1c-0.6,0-1.2-0.1-1.7-0.3
	c-0.6-0.3-1.1-0.8-1.5-1.4c-1-1.1-1.7-2.3-2.3-3.7c-0.6-1.4-0.5-2.9,0.1-4.2c0.8-1.2,2.1-2.1,3.6-2.3c1.4-0.2,2.9-0.2,4.3,0
	c2.5,0.2,4.9,0.2,7.4,0.1c1.7,0,4.8,0.4,6.2-0.8c0.5-0.5,0.8-1,1-1.7l5.2-12.1c1.2-2.7,1.9-5.9,4.1-8c3.9-3.8,7.9-1.1,8.5,3.8
	c0.9,6.4-1,11.6-3.1,17.4C567.5,190.2,567.2,191.6,566.8,192.8z"/>
<path class="st24" d="M538.6,150.8c0.2,0.7,0.3,1.4,0.4,2.1c0,0.4,0,0.8-0.3,1.1c-0.3,0.1-0.6,0.1-0.8,0c-0.2-0.2-0.4-0.4-0.6-0.6
	c-0.3-0.4-1.4-1.4-1-2C536.4,151.1,538.5,150.6,538.6,150.8z"/>
<path class="st32" d="M529.3,117.3c-1.3,0.4-2.3,1.3-2.9,2.5c-0.4,1.2,0,2.6,1,3.5c0.9,0.9,2.1,1.4,3.4,1.5
	c-0.2,0.6-0.3,1.2-0.3,1.8c0,0.7,0.4,1.2,1.1,1.4c0.4,0.1,0.8,0,1.2-0.2c1.4-0.5,2.8-1.1,4.1-1.8c0.5-0.3,1.1-0.5,1.7-0.6
	c0.5,0.1,1,0.2,1.5,0.5c1.2,0.5,2.5,0.7,3.8,0.7c0.5-0.1,0.9-0.1,1.4,0c1.5,0.3,2.2,2,2.6,3.4l2.2,7.1c0.8-1.2,1.6-2.4,2.6-3.5
	c1.8,1.6,1.9,4.4,0.3,6.2c-0.2,0.3-0.5,0.5-0.8,0.7c-0.2,0.1-0.4,0.3-0.5,0.5c0,0.1,0,0.3,0,0.4l2.7,9.3c0.7-0.4,1.4-0.6,2.2-0.6
	c1.9-1.5,2.6-4,3.3-6.3c0.9-2.9,2.1-5.8,3.5-8.5c0.6-1.1,1.3-2.4,0.9-3.6c-0.5-1.5-2.4-2.4-2.4-4c0.1-0.6,0.2-1.1,0.5-1.7
	c0.7-1.6,0.9-3.5,0-4.9c-0.5-0.7-1.1-1.3-1.9-1.7c-1.7-1.2-3.6-2.1-5.6-2.6c0.7-1.4-0.5-3-1.7-4c-2.6-1.8-5.7-2.6-8.8-2.1
	c-3.1,0.4-6,1.8-8.3,3.9c-0.9,0.8-2,0.8-3,1.4C531.7,116.4,530.5,116.9,529.3,117.3z"/>
<path class="st29" d="M413.4,241.1c4,7.8,8.1,15.6,12.3,23.3c3.7,6.7,6.6,13.7,14.2,16.7c1,0.3,2,0.8,2.9,1.5
	c0.8,0.8,1.1,2.1,0.4,2.9c-0.6,0.7-1.7,0.7-2.6,0.6l-10.2-0.6c-1,0-2-0.2-2.9-0.6c-1.7-0.8-2.5-2.8-3.2-4.5
	c-2.3-5.4-6.6-9.4-9.1-14.5c-2.3-4.8-4.9-9.3-7.9-13.7c-4.7-6.6-10.2-13.1-11.7-21.1c-0.4-0.9,0-2,0.8-2.4c0.4-0.2,0.9-0.2,1.4-0.1
	c3.4,0.2,6.6,1.7,9.1,4.1"/>
<path class="st29" d="M408.3,192.4c1.4-1.1,2.5-2.7,2.9-4.5c0.5-1.8,1-3.5,1.7-5.2c0.9-1.8,2.3-3.4,4.1-4.4c0.7-0.4,1.4-0.7,2.2-0.7
	c0.8,0.1,1.6,0.5,2.2,1.1c1.1,0.9,1.9,2.1,2.2,3.6c0.2,1.7-0.8,3.3-1.9,4.5s-2.6,2.2-3.7,3.4c-0.9,1.1-1.7,2.2-2.5,3.4
	c-3.8,5.3-9.3,9.2-15.6,11c-1.2,0.7-2.8,0.3-3.6-0.8c-1.7-1.9-3.1-4.3-3.5-6.8c-0.1-1-0.2-2.6,0.4-3.4c0.6-0.8,2.2-0.8,3.2-0.8
	C400.4,192.8,404.5,195,408.3,192.4z"/>
<path class="st32" d="M409,137.3c-3-4.8-9.4-7.3-14.7-5.4c-0.5,0.2-1,0.4-1.6,0.4c-3.9-0.2-6.7-2.2-10.5,0.3c-2.5,1.7-4,4.6-3.9,7.7
	c-2.6-0.7-5.3,1.4-6.2,3.9c-0.9,2.5-0.4,5.3,0.2,7.9c-2.2,1-3.5,3.5-3.9,5.9c-0.2,2.4,0,4.9,0.7,7.3c-2-0.6-4,1.5-4.1,3.6
	s1,4.1,2.1,5.9c-2.9,0.7-5.3,2.8-6.4,5.6c-1,2.8,0,6.3,2.5,7.8c0.8,0.5,1.7,0.7,2.4,1.2s1.2,1,1.8,1.4c3.2,2.4,7.9,1.7,11.1-0.7
	c7-5.2,8.4-15.5,13.3-22.4c3.7-5.2,9.2-6.6,14.1-10.3c3.3-2.5,4.3-6.2,5-10.2C411.4,143.8,410.7,140.3,409,137.3z"/>
<path class="st29" d="M408.8,156l0.4,1.7c0.1,0.3,0.1,0.7,0.1,1.1c-0.2,0.5-0.6,0.8-1,1.1c-1.1,1-1.2,2.6-1.9,3.9
	c-1.1,2-3.6,2.9-5.8,3c-1.2-0.1-2.4,0.1-3.5,0.5c-1.4,0.7-2.1,2.3-2.4,3.8c-0.2,1.1-0.3,2.3-0.3,3.4c0.2,3.3,1.7,6.6,1.2,9.9
	c-2.9-0.3-5.6-1.7-8.1-3c-2.6-1.3-5.5-3-6.2-5.9c-0.9-4,2.3-7.9,2.8-11.8c0.7-4.9,0.1-9.9,0.8-14.8c0.2-2.3,1-4.5,2.4-6.3
	c0.9-1.1,2.1-1.9,3.3-2.6c5.1-2.7,11.3-2,14.5,3.2c1.2,2.3,2.1,4.8,2.5,7.3L408.8,156z"/>
<path class="st30" d="M382.3,173.5c0.9-0.3,1.9-0.2,2.7,0.3c1.7,1,8.7,10.8,10.5,10.7c1.8-0.2,5.2,6.9,4.2,10.3
	c-0.9,3.4-3.6,5.7-3.9,9.5c-0.3,3.8-2.6,12.3-2.6,12.3l14.3,5.8c-1.5,5.6-1.8,11.4-3.6,17c-0.2,0.8-0.6,1.5-1.3,2.1
	c-0.6,0.3-1.2,0.4-1.8,0.4c-8,0.4-16,0.1-23.9-0.7c-2.5-0.3-5.1-0.7-7-2.2c-2.9-2.3-3.5-6.5-3.4-10.2c0.3-12.7,5.7-24.7,7.2-37.3
	c0.4-3.4,0.5-6.9,1.7-10.1C376.1,179,379.2,174.3,382.3,173.5z"/>
<path class="st32" d="M384.5,225.7c-3.5,3-6.6,6.4-9.2,10.3c-0.5,0.6-0.8,1.5-0.7,2.3c0.2,0.5,0.5,1,1,1.3
	c4.5,3.7,10.9,2.2,16.2,3.5c6.3,1.6,9.5,9.1,11.8,14.7c0.3,0.9,0.8,1.6,1.4,2.2c0.8,0.5,1.7,0.7,2.6,0.7c4.6,0.2,9.1,0,13.6-0.8
	c0.9-0.1,1.8-0.4,2.5-1c1-1,0.8-2.7,0.5-4.1c-1.4-6.8-4.1-13.2-7.9-19c-1.8-2.7-3.8-5.8-6.2-7.9c-2.7-2.4-6.8-3.5-10.1-4.9
	c-2.3-1-4.6-2-7.1-1.8s-4.8,1.6-6.8,3.1C385.6,224.8,385.1,225.2,384.5,225.7z"/>
<path class="st32" d="M394,151.8c-0.9,0.2-1.8,0.5-2.7,0.8c-0.9,0.4-1.5,1.2-1.6,2.2c0.2-0.8-0.8-1.6-1.7-1.4
	c-0.8,0.3-1.4,1-1.5,1.8c-0.2,1.5,0.7,3,2.1,3.6c-1.5,1.9-1.2,4.7-1.4,7.1c-0.2,2.8-1,5.5-2.4,7.9c-0.9,1.6-2.1,2.9-3.6,3.9
	c-1,0.6-2.6,1-3.4,0c-0.3-0.5-0.5-1.1-0.5-1.7c-0.8-9.4-1.1-19.2,2.1-28.1c0.7-2,1.7-3.9,2.9-5.6c2.7-3.5,7-5.5,11.3-6.2
	c4.1-0.7,9.4,0.5,7.8,5.6C400.3,145.8,398.6,150.3,394,151.8z"/>
<path class="st29" d="M384.1,173.8c1.3,0.7,2.3,1.8,2.9,3.1c3.4,5.6,4.4,12.4,7.8,18c0.5,0.8,1,1.5,1.7,2.1c0.7,0.5,1.4,0.9,2.2,1.2
	c4.3,1.7,8.8,2.7,13.4,3c2.2,0.2,4.1,0.3,6.1-0.5c4.5-1.9,9.7,0.1,11.6,4.6c0,0.1,0.1,0.2,0.1,0.3c0.1,0.2,0.1,0.5,0,0.8
	c-0.2,0.3-0.5,0.3-0.8,0.3l-4.5,0.2l-6.1,0.2l-1.1,0c-6.1,0.2-12.8,1.3-18.7-0.5c-5.9-1.7-10.1-6.4-14.2-10.8
	c-2.2-2.1-4.1-4.4-5.8-7c-1.6-2.6-2.5-5.7-1.9-8.7C377.4,177.2,381.1,174.2,384.1,173.8z"/>
<path class="st24" d="M421,184l4.9,6.6c0,0,0.6,0.8-0.7,0.4c-1.4-0.4-5.8-8.3-5.8-8.3c-0.9-1.7-2-3.1-2.9-4.8
	c-0.2-0.3-0.4-0.7-0.6-1.1c0-0.1-0.1-0.2-0.1-0.2c-0.1,0-0.1-0.1-0.2-0.1c-0.3,0-0.6,0-0.8,0c-0.2,0-0.5,0-0.7,0
	c-0.3,0-0.6-0.1-0.8-0.3c-0.8-0.6-1.5-1.5-1.8-2.5c-0.2-0.4-0.3-1-0.2-1.5c0.3,0.2,0.5,0.5,0.7,0.8c0.3,0.4,0.6,0.8,1,1.2
	c0.1,0.2,0.3,0.3,0.6,0.3c0.1,0,0.1,0,0.1-0.1c0.1-0.1,0-0.2,0-0.3l-1.2-3c-0.1-0.1-0.1-0.3,0-0.5c0.3,0,0.6,0.2,0.8,0.5
	c0.2,0.3,0.4,0.5,0.5,0.8c0.3,0.7,0.7,1.3,1.2,1.9c0,0.1,0.1,0.1,0.1,0.1c0.1,0,0.2,0,0.2-0.1c0-0.1,0-0.2,0-0.2
	c-0.1-1.1-1.2-1.9-1.2-3c0.4,0.1,0.8,0.4,1,0.7c0.2,0.4,0.4,0.7,0.6,1.1c0.2,0.5,0.5,1,0.8,1.4c0.2,0.3,0.3,0.5,0.4,0.8
	c0.1,0.3,0.1,0.6-0.1,0.9c0,0,0,0.1,0,0.1c0,0,0,0.1,0,0.1l0.8,1.2c0.2,0.3,0.4,0.6,0.7,1c0.2,0.3,0.3,0.5,0.4,0.8
	c0.3,0.7,0.7,1.4,1.1,2.1C420,182.1,420.5,183,421,184L421,184z"/>
<path class="st40" d="M417.4,169.1c0.1,0.1,0.2,0.2,0.3,0.4c0.1,0.2,0.1,0.4,0,0.6c-0.4,0.9-1.1,1.5-2.1,1.7
	c-0.9,0.2-1.8,0.4-2.7,0.7c-0.8,0.4-1.5,1-2.4,1c-0.5-0.1-1-0.4-1.4-0.8c-0.3-0.5-0.5-1-0.7-1.5c-0.1-0.1-0.1-0.3-0.1-0.5
	c0.1-0.1,0.2-0.3,0.3-0.3c1.4-1.1,3.1-1.9,4.8-2.3C415.1,167.4,416.2,167.9,417.4,169.1z"/>
<linearGradient id="SVGID_11_" gradientUnits="userSpaceOnUse" x1="936.9441" y1="138.3576" x2="946.0101" y2="138.3576" gradientTransform="matrix(-1 0 0 -1 1354.99 309.3)">
	<stop  offset="1.000000e-02" style="stop-color:#020203"/>
	<stop  offset="0.13" style="stop-color:#020203;stop-opacity:0.69"/>
	<stop  offset="1" style="stop-color:#020203;stop-opacity:0"/>
</linearGradient>
<path class="st41" d="M416.2,169.2c-0.3,0.3-0.7,0.5-1,0.6c-1,0.4-2,0.6-3.1,0.7c-0.2,0-0.5,0.1-0.7,0.1c-0.4,0.2-0.8,0.4-1.2,0.8
	c-0.3,0.3-0.8,0.5-1.3,0.5c0,0.5,0.2,0.9,0.6,1.2c0.7,0.4,1.5,0.4,2.2,0.1c0.7-0.3,1.3-0.7,2.1-1c1-0.3,2.1-0.3,3.1-0.7
	c0.2-0.1,0.4-0.2,0.6-0.3c0.5-0.4,0.7-1.1,0.5-1.8c-0.2-0.5-0.5-0.9-0.9-1.2C416.5,168.1,416.5,168.9,416.2,169.2z"/>
<path class="st24" d="M403.7,161.3c-0.9-0.1-1.9-0.2-2.8-0.2c0.1,1.1,0.5,2.2,1.3,3.1c0.2,0.2,0.4,0.4,0.7,0.4
	c0.3,0,0.6-0.2,0.7-0.5c0.5-0.7,0.8-1.5,0.8-2.4c0,0,0-0.1,0-0.1c0-0.1-0.1-0.1-0.2-0.1l-1.1-0.3"/>
<path class="st30" d="M417,200.7c-2.3,0-4.9,0.1-6.7,1c-1.9,0.9-2.8,2.6-3.4,4.2c-4.1,9.4-8.7,19-17,27.1c-0.5,0.5-1.1,1.1-1.1,1.7
	c0.1,0.7,0.5,1.3,1,1.7c4.7,4.1,13.1,5.5,20.8,5.4c2.1,0,4.3-0.1,6.1,0.6c1.3,0.5,2.4,1.3,3.4,2.3c4.1,3.8,8.6,7.9,15.3,9.5
	c6.5,1.5,14.1,0.3,20.3,2.5c4.7,1.7,7.6,4.9,10.8,7.8c1.3,1.3,3,2.2,4.8,2.4c2.9,0.2,5.1-1.6,7-3c4-3,9.3-5,14.2-7.3s9.6-5.2,11.4-9
	c1,2.9,6.4,4.2,10.9,3.8c4.5-0.4,8.5-2,12.9-2.7c7-1.1,14.2,0.1,21.3,0.4c4.1,0.2,8.8-0.1,11.5-2.1c2.5-1.9,2.4-4.8,1.1-7.2
	c-1.3-2.4-3.5-4.5-5.1-6.8c-3.4-5-3.5-10.6-4.4-16c-0.8-4.7-2.5-11.3-8.4-14.6c-2.9-1.6-7.7-1-11.3-1.1c-5.3-0.1-10.5-0.2-15.8-0.2
	c-21.2-0.3-42.4-0.4-63.7-0.4C440.8,200.6,428.9,200.6,417,200.7z"/>
<linearGradient id="SVGID_12_" gradientUnits="userSpaceOnUse" x1="865.2845" y1="200.8425" x2="867.6952" y2="79.757" gradientTransform="matrix(-1 0 0 -1 1354.99 309.3)">
	<stop  offset="1.000000e-02" style="stop-color:#020203"/>
	<stop  offset="0.13" style="stop-color:#020203;stop-opacity:0.69"/>
	<stop  offset="1" style="stop-color:#020203;stop-opacity:0"/>
</linearGradient>
<path class="st42" d="M534,236.8c-5.6-8.3-4.1-19.2-5.5-29.1c-0.3-2.1-1-4.5-3-5.3c-0.8-0.2-1.5-0.4-2.3-0.3l-74.4-1
	c-2,0-4.1,0-5.9,1c-3.5,2.1-3.6,7-5.3,10.7l7.3-7.1c1.1,1.7,1.1,3.7,1,5.6c-0.2,4.8-0.8,9.7-1.6,14.5c-0.3,2.5-1,4.9-2.1,7.2
	c-1.1,2.3-3,4.1-5.3,5.1c1.9,1.1,4,1.6,6.1,1.6c0.9,0,1.8-0.2,2.6-0.7c0.6-0.5,1.1-1.1,1.5-1.8c3.7-6.1,6.3-12.8,7.9-19.7
	c0.3-1.7,0.8-3.3,1.5-4.8c0.7-1.6,2.1-2.7,3.7-3.2c2-0.2,4,0.6,5.2,2.3c1.1,1.7,1.8,3.5,2.1,5.5c0.8,3.7,1.1,7.5,1,11.3
	c-0.1,3.9-0.6,7.9,0.3,11.7c1.3,6,5.7,10.7,8.4,16.2c-4.4-14.9-5-30.7-1.7-46c0-1.5,1.2-2.8,2.7-2.8c0.2,0,0.4,0,0.5,0l29.3-0.8
	c3.2-0.1,6.6-0.1,9.3,1.7c2.9,1.9,4.1,5.5,5.2,8.8l4.4,13.9c0.4,1,0.6,2.1,0.6,3.2c-0.2,1.2-0.7,2.4-1.4,3.4
	c-3,4.3-7.5,7.2-12.6,8.2c-1,0.3-2.1,0.3-3.1,0c-2.5-0.8-3.5-3.6-4.3-6l-0.1,6.8c-0.1,0.7,0.1,1.5,0.4,2.1c0.4,0.4,0.9,0.7,1.5,0.8
	c3.3,0.7,6.6-0.6,9.8-1.6c5.5-1.7,10.9-1.7,16.6-1.5c2.1,0.1,3.2-1,3.2-3.2C537.3,240.8,535.3,238.8,534,236.8z"/>
<rect x="518.8" y="182.7" class="st24" width="8.4" height="17.9"/>
<path class="st1" d="M519.9,187.8c0-0.2,0-0.4,0.1-0.5c0.1-0.1,0.3-0.2,0.5-0.2c1.7-0.1,3.4-0.2,5.1-0.3c0.3-0.1,0.6,0.1,0.7,0.4
	c0,0.1,0,0.2,0,0.3c0.1,3.1,0.2,6.2,0.2,9.3c0,0.8,0.1,2.2-0.6,2.7c-0.5,0.3-2.3,0.2-2.9,0.1c-1.1,0-2.1-0.7-2.7-1.7
	C518.8,195.3,519.8,190.7,519.9,187.8z"/>
<path class="st1" d="M519.9,187.8c0-0.2,0-0.4,0.1-0.5c0.1-0.1,0.3-0.2,0.5-0.2c1.7-0.1,3.4-0.2,5.1-0.3c0.3-0.1,0.6,0.1,0.7,0.4
	c0,0.1,0,0.2,0,0.3c0.1,3.1,0.2,6.2,0.2,9.3c0,0.8,0.1,2.2-0.6,2.7c-0.5,0.3-2.3,0.2-2.9,0.1c-1.1,0-2.1-0.7-2.7-1.7
	C518.8,195.3,519.8,190.7,519.9,187.8z"/>
<rect x="442.1" y="182.7" class="st24" width="8.4" height="17.9"/>
<rect x="424.3" y="182.7" class="st24" width="8.4" height="17.9"/>
<path class="st29" d="M522.6,191.2c-1.6,0.4-2.7,1.8-2.9,3.4c-0.1,1.7,1.3,3.1,2.8,3.7c1.6,0.5,3.2,0.7,4.8,0.6
	c1.8,0,4.9,0.7,5.6-1.3c0.5-1.4,0.3-2.9-0.4-4.1C530.7,191.2,525.1,190.4,522.6,191.2z"/>
<path class="st1" d="M443.2,188.2c0-0.2,0-0.4,0.1-0.5c0.1-0.1,0.3-0.2,0.5-0.1c1.7-0.1,3.4-0.2,5.1-0.3c0.2,0,0.3,0,0.5,0.1
	c0.2,0.2,0.3,0.4,0.2,0.7c0.1,3.1,0.2,6.2,0.2,9.3c0,0.8,0.1,2.2-0.6,2.7c-0.5,0.3-2.3,0.2-2.9,0.1c-1.1,0-2.2-0.7-2.7-1.7
	C442.2,195.7,443.1,191.2,443.2,188.2z"/>
<path class="st1" d="M443.2,188.2c0-0.2,0-0.4,0.1-0.5c0.1-0.1,0.3-0.2,0.5-0.1c1.7-0.1,3.4-0.2,5.1-0.3c0.2,0,0.3,0,0.5,0.1
	c0.2,0.2,0.3,0.4,0.2,0.7c0.1,3.1,0.2,6.2,0.2,9.3c0,0.8,0.1,2.2-0.6,2.7c-0.5,0.3-2.3,0.2-2.9,0.1c-1.1,0-2.2-0.7-2.7-1.7
	C442.2,195.7,443.1,191.2,443.2,188.2z"/>
<path class="st1" d="M425.3,188.2c-0.1-0.3,0.1-0.6,0.4-0.6c0.1,0,0.1,0,0.2,0c1.7-0.1,3.4-0.2,5.1-0.3c0.2,0,0.3,0,0.5,0.1
	c0.2,0.2,0.3,0.4,0.2,0.7c0.1,3.1,0.2,6.2,0.2,9.3c0,0.8,0.1,2.2-0.6,2.7c-0.5,0.3-2.3,0.2-2.9,0.1c-1.1,0-2.2-0.7-2.7-1.7
	C424.3,195.7,425.2,191.2,425.3,188.2z"/>
<path class="st1" d="M425.3,188.2c-0.1-0.3,0.1-0.6,0.4-0.6c0.1,0,0.1,0,0.2,0c1.7-0.1,3.4-0.2,5.1-0.3c0.2,0,0.3,0,0.5,0.1
	c0.2,0.2,0.3,0.4,0.2,0.7c0.1,3.1,0.2,6.2,0.2,9.3c0,0.8,0.1,2.2-0.6,2.7c-0.5,0.3-2.3,0.2-2.9,0.1c-1.1,0-2.2-0.7-2.7-1.7
	C424.3,195.7,425.2,191.2,425.3,188.2z"/>
<path class="st30" d="M386.9,174.8c-0.6-1.2-1.6-2.2-2.8-2.8c-1.8-0.8-4.1-0.1-5.5,1.4c-1.4,1.5-2.3,3.3-2.9,5.3
	c-0.7,1.7-1,3.5-0.9,5.3c0.2,1.2,0.6,2.4,1.2,3.5l4.6,10.2c1.9-1.5,3.7-3.1,5.4-4.7c1.7-1.7,3.9-2.9,6.2-3.4c-0.8-2.5-1.4-5-1.8-7.6
	C389.9,179.5,388.3,176.9,386.9,174.8z"/>
<path class="st30" d="M440.1,281.8c-0.9,0.1-1.7,0.4-2.5,0.9c-1.4,0.6-2.9,0.7-4.4,0.5c-1.9-0.3-3.7-1.3-5.5-1.9
	c-0.5-0.2-1-0.3-1.4-0.2c-0.5,0-1,0.4-1.2,0.8c-0.1,0.5,0,1,0.2,1.5l0.7,1.8c0.2,0.7,0.6,1.4,1,1.9c0.4,0.6,1.1,0.9,1.9,1
	c0.8,0,1.5-0.6,2.2-0.8c0.9-0.1,1.9-0.1,2.8,0.2c1.4,0.3,2.8,0.4,4.1,0.5c2.8,0.2,5.9,0.4,8.3-1.2c0.3-0.2,0.7-0.6,0.5-1
	c-0.1-0.2-0.2-0.3-0.4-0.4C444.7,284.2,442.2,281.7,440.1,281.8z"/>
<path class="st30" d="M494.8,263.7c-1.5,1-2.5,2.6-3.8,3.9c-1.3,1.3-3.2,2.3-4.9,1.7c-0.5-0.3-1-0.5-1.5-0.6c-1.2-0.1-2.1,1-2.7,2.1
	c-0.6,1-1.3,2.4-1.1,3.7c0,0.2,0.1,0.3,0.2,0.5c0.1,0.1,0.3,0.2,0.5,0.2c2.1,0.3,4.2-0.6,6-1.7c1.6-0.9,3.2-2,4.6-3.3
	C494,268.6,495.8,266.3,494.8,263.7z"/>
<path class="st30" d="M505.3,265.8c-1.5,1-2.5,2.6-3.8,3.9c-1.3,1.3-3.2,2.3-4.9,1.7c-0.5-0.3-1-0.5-1.5-0.6c-1.2-0.1-2.1,1-2.7,2.1
	s-1.3,2.4-1.1,3.7c0,0.2,0.1,0.3,0.2,0.5c0.1,0.1,0.3,0.2,0.5,0.2c2.1,0.3,4.2-0.6,6-1.7c1.6-0.9,3.2-2,4.6-3.2
	C504.6,270.6,506.4,268.3,505.3,265.8z"/>
<path class="st30" d="M464.1,267.5c0.9,1,1.9,1.9,3.1,2.6c1,0.5,1.8,1.2,2.6,1.9c0.8,0.8,1,2,0.7,3c-0.6,1.6-2.7,1.9-4.4,1.9
	c-3-0.1-5.9-0.5-8.8-1.2c-3.4-0.9-5.7-5.2-3.5-8.4C455.8,264.5,462.4,265.3,464.1,267.5z"/>
<path class="st30" d="M439.5,270.9c-0.4-0.6,0.3-1.4,0.8-1.8c1.3-0.9,2.8-1.5,4.3-1.9c0.4-0.1,0.9-0.2,1.4-0.2c0.5,0,1,0.2,1.5,0.4
	c3.9,1.5,7,4.8,8.2,8.8c0.1,0.4,0.2,0.8,0.1,1.2c-0.2,1.1-1.6,1.6-2.7,1.7c-6,0.5-11.9-2-15.7-6.7"/>
<path class="st29" d="M452.3,185.6c-0.3-0.2-0.7-0.3-1.1-0.3c-0.8,0.1-1.3,0.8-1.5,1.7c-0.6,2.2,0.5,4.5,2,6.3
	c1.6,1.9,3.4,3.6,5.3,5.2c1.9,1.6,3.9,3.3,6.3,3.7c0.6,0.1,1.3,0.1,1.9,0c1.8-0.4,3.1-1.9,3.4-3.7c0.6-3.9-2.1-5.3-5-6.5
	C459.5,190.2,456.2,187.3,452.3,185.6z"/>
<path class="st24" d="M444.3,167c0,0-0.1,0-0.1,0c-0.1,0-0.1,0.1,0,0.2c0.2,0.9,0.8,1.6,1.7,2.1c0.4,0.2,0.8,0.3,1.2,0.1
	c0.2-0.1,0.3-0.2,0.4-0.4c0.5-0.6,1.4-1.7,0.2-2C446.6,166.9,445.4,166.9,444.3,167z"/>
<path class="st29" d="M450.7,184.9c-0.1-0.1-0.3-0.1-0.4-0.1c-0.5-0.1-0.9-0.1-1.4,0c-0.5,0.1-0.9,0.3-1.2,0.6
	c-0.2,0.2-0.4,0.5-0.5,0.8c-0.2,0.4-0.3,0.8-0.4,1.2c-0.1,0.4-0.1,0.9-0.1,1.4c0,0.5,0.1,0.9,0.2,1.3c0.1,0.3,0.2,0.6,0.4,0.9
	c0.2,0.3,0.5,0.4,0.8,0.6c0.5,0.3,1.1,0.4,1.7,0.3c0.6-0.1,1.1-0.4,1.5-0.8c0.4-0.5,0.6-1.1,0.6-1.7c0-0.6-0.1-1.2-0.2-1.8
	c-0.1-0.5-0.2-1-0.3-1.5C451.3,185.6,451.1,185.2,450.7,184.9z"/>
<image style="overflow:visible;" width="708" height="476" xlink:href="G:\mamie\logo.png"  transform="matrix(0.2077 0 0 0.2077 872.5178 130.7454)">
</image>
<text transform="matrix(1 0 0 1 40.4128 284.5912)" class="st32 st27 st43">En tte  tte</text>
<text transform="matrix(1 0 0 1 394 81.2498)" class="st32 st27 st43">En famille</text>
<text transform="matrix(1 0 0 1 304.2778 161.8717)" class="st32 st27 st44">ou</text>
</svg>
